<svg id="Layer_1" data-name="Layer 1" xmlns="http://www.w3.org/2000/svg" viewBox="0 0 543.43 874.82"><defs><style>.cls-1{font-size:46.91px;font-family:MyriadHebrew-Regular, Myriad Hebrew;}.cls-1,.cls-3{fill:#fff;}.cls-2{letter-spacing:0em;}.cls-4{fill:#4d10ea;}</style></defs><title>bank</title><text class="cls-1" transform="translate(436.77 40.18) scale(1 1.02)"><tspan class="cls-2">D</tspan><tspan x="31.38" y="0">one</tspan></text><path class="cls-3" d="M207.35,145.94a5.06,5.06,0,1,0,5.06-5.06,5.05,5.05,0,0,0-5.06,5.06" transform="translate(-74.58 651.99)"/><path class="cls-3" d="M126.17,125.06a4.32,4.32,0,0,0,5.52,2,89.93,89.93,0,0,1,67.25,0,4.32,4.32,0,0,0,5.51-2,4,4,0,0,0-2.37-5.44,98.13,98.13,0,0,0-73.54,0,4,4,0,0,0-2.37,5.44" transform="translate(-74.58 651.99)"/><path class="cls-4" d="M154,196.29h24v-5.07c0-15.84.1-31.68-.08-47.52,0-3.83,1.17-5.17,5-5.08,14.33.35,12-1.87,12.11,11.76s0,27.07,0,40.6v5.24H218.8c.09-1.89.23-3.67.24-5.45,0-15.53.13-31.07-.07-46.6-.06-4.2,1.19-5.65,5.5-5.6,11.68.15,11.68,0,11.68,11.74v46.16c3.06,0,5.8.22,8.49-.05,3.78-.38,5,1.28,4.66,4.8a41.39,41.39,0,0,0,0,4.31c.54.44.75.77,1,.8,7,.77,7,.76,7,7.74,0,1.54-.09,3.08,0,4.61.2,3-1.13,4.21-4.07,4.13-3.84-.1-7.69,0-11.53,0H81.56c-6.84,0-6.84,0-6.84-6.85V215c0-7.86,0-7.86,6.95-8.81,1-3.31,1-7.93,3.09-9.26,2.51-1.59,6.8-.37,11-.37v-5.23c0-15.84.12-31.68-.08-47.52-.05-4.1,1.31-5.28,5.29-5.26,11.78.07,11.78-.07,11.78,11.64v45.92h23.74c.09-1.53.26-3.14.26-4.75,0-15.84.12-31.68-.06-47.52,0-4.08,1.37-5.31,5.36-5.29,11.9.07,11.9-.07,11.9,12Z" transform="translate(-74.58 651.99)"/><path class="cls-4" d="M152.73,112.23c-.94,7.94-.8,8.27,7.22,9.57,2.64.43,4.08,1.22,3,4.4-1,.08-2.24.25-3.43.25-26.76,0-53.52,0-80.28-.06-1.57,0-3.13-1-4.69-1.61,1-1.18,1.82-2.73,3.08-3.49q42.44-25.57,85-51a5.72,5.72,0,0,1,6.74,0Q212,95.95,254.71,121.52c1.14.69,1.82,2.14,2.71,3.23-1.25.57-2.5,1.62-3.75,1.63q-41.52.13-83,0a9.94,9.94,0,0,1-1.52-.27c-.76-2.57-.44-4.06,2.72-4.77a9.35,9.35,0,0,0,7.79-9.1c.31-4.78-2.36-7.79-6.43-9.69-2.78-1.29-5.73-2.22-8.47-3.59-.88-.44-1.3-1.79-1.93-2.72.9-.45,1.85-1.36,2.71-1.28,3.46.32,6.9.95,10.82,1.53l2.61-6.1c-2.94-3.71-9.45-.41-11-7.78-1.89,1.55-3.23,2.79-4.72,3.81A11.28,11.28,0,0,1,160,87.88c-4.16,1.25-7.19,3.57-7.61,8.2a9.51,9.51,0,0,0,5.74,10.11c2.89,1.4,6,2.38,8.85,3.87,1,.52,1.5,2,2.22,3-1,.5-2.15,1.53-3.1,1.41-4.36-.55-8.68-1.44-13.39-2.27" transform="translate(-74.58 651.99)"/></svg>