<svg id="Layer_1" data-name="Layer 1" xmlns="http://www.w3.org/2000/svg" viewBox="0 0 531.83 827.06"><defs><style>.cls-1{font-size:46.91px;fill:#fff;font-family:MyriadHebrew-Regular, Myriad Hebrew;letter-spacing:0em;}.cls-2{letter-spacing:0em;}.cls-3{fill:#4d10ea;}</style></defs><title>category</title><path class="cls-3" d="M69.82,155.2h60.28v60.4h-2.19c-9.2,0-18.41,0-27.61,0-17.66,0-30.45-12.85-30.48-30.54q0-13.81,0-27.61Z" transform="translate(-69.82 611.45)"/><path class="cls-3" d="M157.29,128.06V67.84c.71,0,1.42-.1,2.13-.1,9.27,0,18.54,0,27.81,0,17.59.06,30.37,12.81,30.43,30.37,0,9.34,0,18.68,0,28v1.93Z" transform="translate(-69.82 611.45)"/><path class="cls-3" d="M130.17,128.12H69.82v-2.23c0-9.2,0-18.4,0-27.6,0-17.69,12.8-30.49,30.47-30.55,9.27,0,18.54,0,27.8,0,.66,0,1.32.06,2.08.1Z" transform="translate(-69.82 611.45)"/><path class="cls-3" d="M217.66,184.38a31.26,31.26,0,1,1-31.21-31.31,31.23,31.23,0,0,1,31.21,31.31" transform="translate(-69.82 611.45)"/></svg>