<svg id="Layer_1" data-name="Layer 1" xmlns="http://www.w3.org/2000/svg" viewBox="0 0 245 216.87"><defs><style>.cls-1{fill:#4d10ea;}</style></defs><title>comapny</title><path class="cls-1" d="M249.65,172l-7,6.38-5.75-5.5a8.35,8.35,0,0,1,1-2.06c15.32-15.6,12.66-13.44,26-.26,10.8,10.65,21.59,21.33,32.09,32.27,2,2.09,2.67,5.49,3.95,8.28-2.81,1.15-5.54,2.81-8.47,3.31-3.36.58-6.89.13-11.51.13,0,6,0,11.3,0,16.58,0,10.74.19,21.48-.08,32.21-.13,5.23,1.2,7.93,7,7.25,3.65-.43,7.39-.08,11.57-.08.19,2.78.34,5,.54,7.9H55v-7.5l13-.85c.13-2.94.35-5.64.36-8.34q0-81.92,0-163.85c0-11.94,1.83-13.07,13.15-8.24s22.62,9.91,34.12,14.39c5.82,2.27,8.39,5.52,8.15,12-.44,12.06-.13,24.15-.13,37.12,14.69,0,28.61,0,42.54,0,11,0,11.3.28,11.3,11.52,0,32.68.14,65.35-.12,98,0,6.06,1.56,8.31,7.86,8,9.31-.51,18.67,0,28-.19,3.6-.07,8.22,1.78,9.76-4.14.12-.47,6.72-.4,7,.49,1.49,4.59,4.87,3.66,8,3.68,8.64.06,17.29-.29,25.9.13,5.72.28,7.68-1.45,7.57-7.4-.36-18.64-.13-37.3-.13-56.69l12-.86L249.65,172m-125.54-9.43v108c12.94,0,25.48-.29,38,.13,5.84.19,7-2.09,7-7.35-.19-31.27-.09-62.54-.11-93.81,0-2.24-.26-4.49-.41-6.93ZM97.85,270.16c2.7.16,4.54.36,6.38.36,12.38,0,10.38.57,10.4-10.49q.11-58.36,0-116.71v-8.64H97.85ZM77.39,134.66v8.58q0,59.07,0,118.14c0,1.4.1,2.8,0,4.19-.26,3.53,1.24,4.75,4.83,5.05,5.84.49,6.29-2.56,6.28-7.17-.11-40.78-.06-81.55-.09-122.33,0-2-.26-4.06-.43-6.47Zm38.06-10c-1.06-4.47-.8-10.45-3-11.61C101.44,107.36,89.8,103,78,97.9v26.77Z" transform="translate(-55 -61.56)"/><path class="cls-1" d="M230.71,156.66h-8.12V120.19h16.53L193.55,74.63l-44.47,45.13,16.66.76v24.64h-7.32a22.71,22.71,0,0,1-.64-3.31c-.61-12.88-.6-12.6-13.82-13-4-.13-7.87-2.27-11.81-3.48,2-3.42,3.35-7.43,6-10.17,16.14-16.53,32.57-32.78,48.91-49.11,5.89-5.88,8.28-6,13.88-.37,17.34,17.31,34.7,34.6,51.88,52.08,1.9,1.93,2.62,5,3.89,7.58-2.77,1.21-5.51,3.39-8.31,3.48-17.7.53-17.7.38-17.71,18.18,0,3,0,6,0,9.65" transform="translate(-55 -61.56)"/><path class="cls-1" d="M222.71,187.56h7.57c.15,2.61.28,5,.44,8h-8Z" transform="translate(-55 -61.56)"/><rect class="cls-1" x="167.79" y="145.37" width="7.43" height="8.45"/><rect class="cls-1" x="167.62" y="164.92" width="7.55" height="8.43"/><path class="cls-1" d="M230.28,246.23v8.35l-7.55.34v-8.68Z" transform="translate(-55 -61.56)"/><rect class="cls-1" x="167.74" y="106.51" width="7.58" height="8.14"/><path class="cls-1" d="M128.82,216.5H153.1c2,6.35.66,9.47-6.44,8.88-5.48-.45-11-.09-17.38-.09l-.46-8.79" transform="translate(-55 -61.56)"/><rect class="cls-1" x="73.65" y="173.63" width="24.79" height="8.19"/><path class="cls-1" d="M129.4,176.48c6.45,0,12.28.28,18.06-.08,6.08-.37,7.47,2.29,5.7,8.11H129.4Z" transform="translate(-55 -61.56)"/><path class="cls-1" d="M153.58,196.23v8h-24c-2-5.67-.75-8.53,6.05-8.06,5.74.4,11.53.08,17.93.08" transform="translate(-55 -61.56)"/><path class="cls-1" d="M128.91,255.55h23.64c2.28,7.51,1.83,8.2-5.47,8.31-3.95.06-7.91-.23-11.84.07-5.87.45-8.4-1.6-6.34-8.38" transform="translate(-55 -61.56)"/></svg>