<svg id="Layer_1" data-name="Layer 1" xmlns="http://www.w3.org/2000/svg" viewBox="0 0 179.51 192.41"><defs><style>.cls-1{fill:#4d10ea;}.cls-2{fill:#fff;}</style></defs><title>dashboard</title><path class="cls-1" d="M112.52,179.26c-1.28-.41-8.77-3-14.09-7.6A14.33,14.33,0,0,1,88,171.08a13,13,0,0,1-7.43-14.87,2.68,2.68,0,0,1,5.27,1c-.79,4,.85,7.35,4.38,9a9.22,9.22,0,0,0,4.3.79A11,11,0,0,1,93,161c.18-3.9,2.15-6.73,5.27-7.6a7.45,7.45,0,0,1,8.09,3.07c2,3,1.53,6.94-1.27,10.53a14.31,14.31,0,0,1-1.65,1.78,42.64,42.64,0,0,0,10.74,5.42,2.69,2.69,0,0,1-.68,5.24,2.57,2.57,0,0,1-1-.13M99.7,158.52c-1.07.3-1.3,1.81-1.35,2.68A6.19,6.19,0,0,0,99.58,165a9,9,0,0,0,1.27-1.33c1.33-1.7,1.71-3.25,1-4.25a2.19,2.19,0,0,0-1.86-.94,1.67,1.67,0,0,0-.34.05" transform="translate(-80.24 -53.8)"/><path class="cls-1" d="M205.79,236.74c2.09,7.86,6.1,9.46,9.46,9.46,7.35,0,12.07-1,13.32-9.46l1-18.34c0-7.35-7-8.83-14.32-8.83a13.31,13.31,0,0,0-13.32,13.31Z" transform="translate(-80.24 -53.8)"/><path class="cls-1" d="M148.43,236.74c-2.09,7.86-6.1,9.46-9.46,9.46-7.35,0-12.07-1-13.32-9.46l-1-18.34c0-7.35,7-8.83,14.32-8.83a13.31,13.31,0,0,1,13.32,13.31Z" transform="translate(-80.24 -53.8)"/><path class="cls-1" d="M234.21,192.5c0,6.55,5.72,11.86,12.77,11.86s12.78-5.31,12.78-11.86V177.92c0-6.55-5.72-11.86-12.78-11.86s-12.77,5.31-12.77,11.86Z" transform="translate(-80.24 -53.8)"/><path class="cls-1" d="M177.11,126.37a82.9,82.9,0,0,1,38.69,9.29l15-9.4c3.65-3.3,11.6-3.55,14.9.11s.72,9.83-2.94,13.12l-8.84,10c8.4,9.23,13.37,20.58,13.37,32.85,0,30.9-31.4,56-70.14,56S107,213.23,107,182.33s31.4-56,70.13-56" transform="translate(-80.24 -53.8)"/><path class="cls-2" d="M218.45,166.06a5.06,5.06,0,1,0,5.06-5.06,5.05,5.05,0,0,0-5.06,5.06" transform="translate(-80.24 -53.8)"/><rect class="cls-2" x="69.11" y="0.07" width="54.52" height="83.88"/><path class="cls-1" d="M194.59,129.75V70.83a5.56,5.56,0,0,1-.74.07,5,5,0,0,1-5-5,5.69,5.69,0,0,1,.07-.74H164.34a4.69,4.69,0,0,1,.08.74,5,5,0,0,1-5,5,5.69,5.69,0,0,1-.74-.07v64.59a75.28,75.28,0,0,1,35.95-.22Z" transform="translate(-80.24 -53.8)"/><path class="cls-1" d="M149.38,53.8v84.6c1.43-.56,3.1-1.17,5-1.76V60.83h44.55v75.53c1.87.56,3.53,1.14,5,1.69V53.8Z" transform="translate(-80.24 -53.8)"/><path class="cls-2" d="M171.53,99.24a2,2,0,0,1,1.64.8,10,10,0,0,1,1.17,1.94h-5.56a3.17,3.17,0,0,1,.87-2.06,2.59,2.59,0,0,1,1.87-.68" transform="translate(-80.24 -53.8)"/><path class="cls-2" d="M183.81,104.59a2.51,2.51,0,0,1-1.66.55,2,2,0,0,1-1.59-.74,8.72,8.72,0,0,1-1.18-1.85h5.15a2.71,2.71,0,0,1-.73,2" transform="translate(-80.24 -53.8)"/><path class="cls-2" d="M160.45,102.2A16.16,16.16,0,1,0,176.62,86a16.16,16.16,0,0,0-16.16,16.16m2-1.56h2.94a6.9,6.9,0,0,1,2.1-4A6.51,6.51,0,0,1,172,95.14a5.61,5.61,0,0,1,2.45.49,6.3,6.3,0,0,1,1.78,1.26,8,8,0,0,1,1.31,1.77c.37.66.71,1.32,1,2h5.93a10.94,10.94,0,0,0-.38-1.87,10.78,10.78,0,0,0-.5-1.35L187,96.28a15.31,15.31,0,0,1,.66,1.92,12.72,12.72,0,0,1,.38,2.43h2.75v3.28h-2.87a6.91,6.91,0,0,1-1.94,3.9,5.84,5.84,0,0,1-4.21,1.44,6.33,6.33,0,0,1-2.51-.46,5.9,5.9,0,0,1-1.81-1.22,7.73,7.73,0,0,1-1.29-1.72q-.54-1-1-1.94h-6.41a11.88,11.88,0,0,0,.44,2.45,7,7,0,0,0,.66,1.6l-3.61,1.23a8.4,8.4,0,0,1-.74-2.12,16.71,16.71,0,0,1-.39-3.16h-2.74Z" transform="translate(-80.24 -53.8)"/><path class="cls-2" d="M137.27,145.18a4.33,4.33,0,0,0,5.52,2,89.93,89.93,0,0,1,67.26,0,4.32,4.32,0,0,0,5.51-2,4,4,0,0,0-2.37-5.44,98.14,98.14,0,0,0-73.55,0,4,4,0,0,0-2.37,5.44" transform="translate(-80.24 -53.8)"/></svg>