<svg id="Layer_1" data-name="Layer 1" xmlns="http://www.w3.org/2000/svg" viewBox="0 0 212.5 212.5"><defs><style>.cls-1{fill:#4d10ea;}.cls-2{fill:#fff;}</style></defs><title>next icon</title><path class="cls-1" d="M292,208A106.25,106.25,0,1,1,185.75,101.75,106.25,106.25,0,0,1,292,208" transform="translate(-79.5 -101.75)"/><path class="cls-2" d="M119.58,237.79q7-7.27,13.77-14.76t13.77-14.54q-4.2-4.84-8.41-9.47t-8.56-9.25q-1.09-1.1-2.72-2.64t-3.35-3.42q-1.72-1.87-3.27-3.85a14.62,14.62,0,0,1-2.33-4.19,19.58,19.58,0,0,1-1.25-7.71,20.64,20.64,0,0,1,1.48-7.16,10.4,10.4,0,0,1,3.81-4.85,6.29,6.29,0,0,1,5.76-.55,11.61,11.61,0,0,1,5.29,3.85q2.49,3,4.67,5.4l7.16,7.93q3.58,4,7.16,8.15,2.33,2.64,3.35,3.74c.67.74,1.3,1.43,1.87,2.09s1.27,1.43,2.1,2.31,2.08,2.28,3.73,4.18q3,3.09,5.37,6.06a16.85,16.85,0,0,1,3.19,8.26,14.06,14.06,0,0,1-.78,6.94,23.26,23.26,0,0,1-3.19,5.73,29.54,29.54,0,0,1-4.28,4.51,38.37,38.37,0,0,0-3.89,3.74q-5.45,5.73-10.74,11.45t-10.74,11.45q-2.33,2.43-4.67,5.18a13.08,13.08,0,0,1-5.14,3.85q-3.89,1.54-6.69,0a9.57,9.57,0,0,1-4.2-4.85,18.29,18.29,0,0,1-1.24-7.82,23.1,23.1,0,0,1,2.18-8.92Z" transform="translate(-79.5 -101.75)"/><path class="cls-2" d="M202.15,237.79q7-7.27,13.77-14.76T229.7,208.5q-4.2-4.84-8.41-9.47t-8.56-9.25q-1.09-1.1-2.72-2.64t-3.35-3.42q-1.72-1.87-3.27-3.85a14.65,14.65,0,0,1-2.33-4.19,19.58,19.58,0,0,1-1.25-7.71,20.64,20.64,0,0,1,1.48-7.16,10.39,10.39,0,0,1,3.81-4.85,6.29,6.29,0,0,1,5.76-.55,11.61,11.61,0,0,1,5.29,3.85q2.49,3,4.67,5.4L228,172.6q3.58,4,7.16,8.15,2.34,2.64,3.35,3.74c.67.74,1.3,1.43,1.87,2.09s1.27,1.43,2.1,2.31,2.07,2.28,3.73,4.18q3,3.09,5.37,6.06a16.84,16.84,0,0,1,3.19,8.26,14,14,0,0,1-.78,6.94,23.21,23.21,0,0,1-3.19,5.73,29.53,29.53,0,0,1-4.28,4.51,38.1,38.1,0,0,0-3.89,3.74q-5.45,5.73-10.74,11.45t-10.74,11.45q-2.33,2.43-4.67,5.18a13.07,13.07,0,0,1-5.14,3.85q-3.89,1.54-6.69,0a9.57,9.57,0,0,1-4.2-4.85,18.29,18.29,0,0,1-1.25-7.82,23.12,23.12,0,0,1,2.18-8.92Z" transform="translate(-79.5 -101.75)"/></svg>