<svg id="Layer_1" data-name="Layer 1" xmlns="http://www.w3.org/2000/svg" xmlns:xlink="http://www.w3.org/1999/xlink" viewBox="0 0 2327.57 2420"><defs><style>.cls-1,.cls-53,.cls-6,.cls-63{fill:none;}.cls-2,.cls-45,.cls-47,.cls-50,.cls-55,.cls-64,.cls-7{fill:#4d10ea;}.cls-3{clip-path:url(#clip-path);}.cls-12,.cls-15,.cls-4,.cls-54{fill:#fff;}.cls-5{fill:#e8e8e8;}.cls-6{stroke:#c0bfc4;stroke-width:3px;}.cls-53,.cls-6,.cls-63{stroke-miterlimit:10;}.cls-7{font-size:39.79px;}.cls-45,.cls-47,.cls-50,.cls-54,.cls-55,.cls-64,.cls-7{font-family:BalooThambi-Regular, BalooThambi Regular;}.cls-8{opacity:0.75;}.cls-9{clip-path:url(#clip-path-3);}.cls-10{fill:#c0bfc4;}.cls-11{fill:red;}.cls-12{font-size:44.1px;}.cls-12,.cls-15{font-family:MyriadHebrew-Regular, Myriad Hebrew;}.cls-13{clip-path:url(#clip-path-6);}.cls-14{clip-path:url(#clip-path-9);}.cls-15{font-size:46.91px;}.cls-16{letter-spacing:0em;}.cls-17{clip-path:url(#clip-path-13);}.cls-18{clip-path:url(#clip-path-16);}.cls-19{clip-path:url(#clip-path-19);}.cls-20{clip-path:url(#clip-path-22);}.cls-21{clip-path:url(#clip-path-25);}.cls-22{clip-path:url(#clip-path-28);}.cls-23{clip-path:url(#clip-path-31);}.cls-24{clip-path:url(#clip-path-34);}.cls-25{clip-path:url(#clip-path-37);}.cls-26{clip-path:url(#clip-path-40);}.cls-27{clip-path:url(#clip-path-43);}.cls-28{clip-path:url(#clip-path-46);}.cls-29{clip-path:url(#clip-path-49);}.cls-30{clip-path:url(#clip-path-52);}.cls-31{clip-path:url(#clip-path-55);}.cls-32{clip-path:url(#clip-path-58);}.cls-33{clip-path:url(#clip-path-61);}.cls-34{clip-path:url(#clip-path-64);}.cls-35{clip-path:url(#clip-path-67);}.cls-36{clip-path:url(#clip-path-70);}.cls-37{clip-path:url(#clip-path-73);}.cls-38{clip-path:url(#clip-path-76);}.cls-39{clip-path:url(#clip-path-79);}.cls-40{clip-path:url(#clip-path-82);}.cls-41{clip-path:url(#clip-path-85);}.cls-42{clip-path:url(#clip-path-88);}.cls-43{clip-path:url(#clip-path-91);}.cls-44{clip-path:url(#clip-path-94);}.cls-45{font-size:189.81px;}.cls-46{clip-path:url(#clip-path-95);}.cls-47{font-size:64.82px;}.cls-48{letter-spacing:0em;}.cls-49{letter-spacing:-0.02em;}.cls-50{font-size:50.99px;}.cls-51{letter-spacing:0em;}.cls-52{letter-spacing:0.01em;}.cls-53{stroke:#fff;stroke-width:18px;}.cls-54{font-size:172.82px;}.cls-55{font-size:64.7px;}.cls-56{letter-spacing:0em;}.cls-57{letter-spacing:0.02em;}.cls-58{letter-spacing:0em;}.cls-59{letter-spacing:0em;}.cls-60{letter-spacing:-0.01em;}.cls-61{letter-spacing:0em;}.cls-62{clip-path:url(#clip-path-98);}.cls-63{stroke:#4d10ea;stroke-width:6px;}.cls-64{font-size:83.66px;}.cls-65{letter-spacing:0em;}.cls-66{letter-spacing:0em;}.cls-67{letter-spacing:0.01em;}.cls-68{letter-spacing:0em;}</style><clipPath id="clip-path" transform="translate(1977.1 871.34)"><rect class="cls-1" x="-1815.17" y="-871.34" width="1125.84" height="2420"/></clipPath><clipPath id="clip-path-3" transform="translate(1977.1 871.34)"><rect class="cls-1" x="-1743.09" y="-279.96" width="235.53" height="89.6"/></clipPath><clipPath id="clip-path-6" transform="translate(1977.1 871.34)"><rect class="cls-1" x="-1486.51" y="-275.53" width="235.53" height="89.6"/></clipPath><clipPath id="clip-path-9" transform="translate(1977.1 871.34)"><rect class="cls-1" x="-1229.51" y="-271.53" width="235.53" height="89.6"/></clipPath><clipPath id="clip-path-13" transform="translate(1977.1 871.34)"><rect class="cls-1" x="-1742.29" y="-142.24" width="235.53" height="89.59"/></clipPath><clipPath id="clip-path-16" transform="translate(1977.1 871.34)"><rect class="cls-1" x="-1485.71" y="-137.82" width="235.53" height="89.6"/></clipPath><clipPath id="clip-path-19" transform="translate(1977.1 871.34)"><rect class="cls-1" x="-1228.71" y="-133.82" width="235.53" height="89.6"/></clipPath><clipPath id="clip-path-22" transform="translate(1977.1 871.34)"><rect class="cls-1" x="-974.71" y="-130.82" width="235.53" height="89.6"/></clipPath><clipPath id="clip-path-25" transform="translate(1977.1 871.34)"><rect class="cls-1" x="-1743.69" y="-27.12" width="235.53" height="89.6"/></clipPath><clipPath id="clip-path-28" transform="translate(1977.1 871.34)"><rect class="cls-1" x="-1487.11" y="-22.69" width="235.53" height="89.59"/></clipPath><clipPath id="clip-path-31" transform="translate(1977.1 871.34)"><rect class="cls-1" x="-1230.11" y="-18.69" width="235.53" height="89.59"/></clipPath><clipPath id="clip-path-34" transform="translate(1977.1 871.34)"><rect class="cls-1" x="-976.11" y="-15.69" width="235.53" height="89.59"/></clipPath><clipPath id="clip-path-37" transform="translate(1977.1 871.34)"><rect class="cls-1" x="-1742.89" y="110.59" width="235.53" height="89.6"/></clipPath><clipPath id="clip-path-40" transform="translate(1977.1 871.34)"><rect class="cls-1" x="-1486.31" y="115.02" width="235.53" height="89.6"/></clipPath><clipPath id="clip-path-43" transform="translate(1977.1 871.34)"><rect class="cls-1" x="-1229.31" y="119.02" width="235.53" height="89.6"/></clipPath><clipPath id="clip-path-46" transform="translate(1977.1 871.34)"><rect class="cls-1" x="-975.31" y="122.02" width="235.53" height="89.6"/></clipPath><clipPath id="clip-path-49" transform="translate(1977.1 871.34)"><rect class="cls-1" x="-1739.39" y="222.46" width="235.53" height="89.6"/></clipPath><clipPath id="clip-path-52" transform="translate(1977.1 871.34)"><rect class="cls-1" x="-1482.81" y="226.89" width="235.53" height="89.6"/></clipPath><clipPath id="clip-path-55" transform="translate(1977.1 871.34)"><rect class="cls-1" x="-1225.81" y="230.89" width="235.53" height="89.6"/></clipPath><clipPath id="clip-path-58" transform="translate(1977.1 871.34)"><rect class="cls-1" x="-971.81" y="233.89" width="235.53" height="89.6"/></clipPath><clipPath id="clip-path-61" transform="translate(1977.1 871.34)"><rect class="cls-1" x="-1738.59" y="360.17" width="235.53" height="89.6"/></clipPath><clipPath id="clip-path-64" transform="translate(1977.1 871.34)"><rect class="cls-1" x="-1482.01" y="364.6" width="235.53" height="89.6"/></clipPath><clipPath id="clip-path-67" transform="translate(1977.1 871.34)"><rect class="cls-1" x="-1225.01" y="368.6" width="235.53" height="89.6"/></clipPath><clipPath id="clip-path-70" transform="translate(1977.1 871.34)"><rect class="cls-1" x="-971.01" y="371.6" width="235.53" height="89.6"/></clipPath><clipPath id="clip-path-73" transform="translate(1977.1 871.34)"><rect class="cls-1" x="-1739.99" y="475.3" width="235.53" height="89.6"/></clipPath><clipPath id="clip-path-76" transform="translate(1977.1 871.34)"><rect class="cls-1" x="-1483.41" y="479.73" width="235.53" height="89.59"/></clipPath><clipPath id="clip-path-79" transform="translate(1977.1 871.34)"><rect class="cls-1" x="-1226.41" y="483.73" width="235.53" height="89.59"/></clipPath><clipPath id="clip-path-82" transform="translate(1977.1 871.34)"><rect class="cls-1" x="-972.41" y="486.73" width="235.53" height="89.59"/></clipPath><clipPath id="clip-path-85" transform="translate(1977.1 871.34)"><rect class="cls-1" x="-1739.19" y="613.01" width="235.53" height="89.6"/></clipPath><clipPath id="clip-path-88" transform="translate(1977.1 871.34)"><rect class="cls-1" x="-1482.61" y="617.44" width="235.53" height="89.6"/></clipPath><clipPath id="clip-path-91" transform="translate(1977.1 871.34)"><rect class="cls-1" x="-1225.61" y="621.44" width="235.53" height="89.6"/></clipPath><clipPath id="clip-path-94" transform="translate(1977.1 871.34)"><rect class="cls-1" x="-971.61" y="624.44" width="235.53" height="89.6"/></clipPath><clipPath id="clip-path-95" transform="translate(1977.1 871.34)"><rect class="cls-1" x="-2159.44" y="-818.28" width="1125.84" height="2420"/></clipPath><clipPath id="clip-path-98" transform="translate(1977.1 871.34)"><rect class="cls-1" x="-1834.6" y="-871.34" width="1125.84" height="2420"/></clipPath></defs><title>pencil</title><line class="cls-2" x1="1250.28" y1="902.56" x2="1286.28" y2="938.56"/><line class="cls-2" x1="1249.68" y1="1155.4" x2="1285.68" y2="1191.4"/><path class="cls-2" d="M-689.33,567.43l-33.79-33.79Z" transform="translate(1977.1 871.34)"/><path class="cls-2" d="M-689.33,820.87l-34.39-34.39Z" transform="translate(1977.1 871.34)"/><rect class="cls-2" x="161.93" y="2231.55" width="1121.34" height="188.45"/><g class="cls-3"><path class="cls-4" d="M-864,1376.26c-.08,2.12-1.4,3.73-3,3.64l-14.83-.71c-1.55-.12-2.71-1.87-2.6-4l.59-11.91c.12-2.08,1.46-3.77,3-3.65l14.8.76c1.55.07,2.7,1.81,2.59,3.92Z" transform="translate(1977.1 871.34)"/><path class="cls-4" d="M-869.88,1492.56c.1-2.08-1.07-3.86-2.63-3.92l-14.82-.76c-1.54-.08-2.89,1.56-3,3.66l-.6,11.94c-.11,2.09,1,3.86,2.59,3.93l14.84.75c1.55.08,2.89-1.56,3-3.63Z" transform="translate(1977.1 871.34)"/><path class="cls-4" d="M-894.56,1377.4c.94,1.87.62,4-.78,4.66l-13.18,6.77c-1.38.67-3.29-.23-4.24-2.1l-5.45-10.66c-.95-1.88-.61-4,.77-4.69l13.21-6.73c1.39-.73,3.28.22,4.22,2.11Z" transform="translate(1977.1 871.34)"/><path class="cls-4" d="M-841.5,1481.09c-1-1.89-2.86-2.81-4.25-2.14l-13.2,6.79c-1.4.71-1.73,2.79-.8,4.66l5.45,10.67c1,1.87,2.88,2.82,4.27,2.1l13.19-6.8c1.39-.69,1.74-2.77.78-4.65Z" transform="translate(1977.1 871.34)"/><path class="cls-4" d="M-920.46,1393.69c1.77,1.11,2.5,3.12,1.66,4.4l-8.07,12.47c-.85,1.3-3,1.44-4.72.28l-10-6.49c-1.74-1.14-2.53-3.12-1.65-4.43l8.05-12.48c.83-1.27,2.94-1.41,4.71-.27Z" transform="translate(1977.1 871.34)"/><path class="cls-4" d="M-822.7,1456.95c-1.77-1.13-3.88-1-4.72.28l-8.05,12.49c-.83,1.27-.1,3.29,1.68,4.42l10,6.47c1.77,1.16,3.9,1.05,4.74-.29l8.05-12.44c.82-1.27.11-3.29-1.67-4.43Z" transform="translate(1977.1 871.34)"/><path class="cls-4" d="M-934.78,1420.72c2.09.12,3.76,1.47,3.67,3l-.77,14.82c-.08,1.55-1.84,2.69-3.93,2.62l-12-.62c-2.09-.12-3.73-1.45-3.64-3l.75-14.82c.07-1.56,1.84-2.72,3.94-2.61Z" transform="translate(1977.1 871.34)"/><path class="cls-4" d="M-818.44,1426.66c-2.11-.12-3.89,1-4,2.6l-.75,14.81c-.08,1.55,1.56,2.9,3.67,3l11.93.61c2.11.09,3.85-1.05,4-2.61l.74-14.83c.1-1.55-1.56-2.89-3.64-3Z" transform="translate(1977.1 871.34)"/><path class="cls-4" d="M-933.64,1451.3c1.86-1,4-.59,4.68.78l6.74,13.23c.71,1.35-.23,3.28-2.11,4.21L-935,1475c-1.85,1-3.93.63-4.66-.77L-946.4,1461c-.69-1.37.24-3.29,2.13-4.23Z" transform="translate(1977.1 871.34)"/><path class="cls-4" d="M-830,1398.29c-1.88.93-2.81,2.83-2.11,4.21l6.75,13.2c.69,1.38,2.8,1.74,4.66.79L-810,1411c1.87-.93,2.82-2.82,2.13-4.22l-6.76-13.22c-.71-1.37-2.79-1.71-4.68-.76Z" transform="translate(1977.1 871.34)"/><path class="cls-4" d="M-917.36,1477.26c1.14-1.79,3.11-2.55,4.43-1.7l12.45,8.06c1.3.85,1.44,3,.3,4.73l-6.52,10c-1.13,1.76-3.11,2.5-4.43,1.66l-12.44-8.08c-1.31-.83-1.42-3-.3-4.71Z" transform="translate(1977.1 871.34)"/><path class="cls-4" d="M-854.09,1379.47c-1.13,1.75-1,3.83.3,4.7l12.47,8.06c1.28.81,3.27.11,4.4-1.66l6.51-10.05c1.14-1.74,1-3.87-.3-4.69l-12.46-8.09c-1.29-.83-3.29-.08-4.41,1.67Z" transform="translate(1977.1 871.34)"/><path class="cls-4" d="M-874,1371.42a62.55,62.55,0,0,0-65.63,59.31,62.55,62.55,0,0,0,59.28,65.64,62.55,62.55,0,0,0,65.65-59.29,62.58,62.58,0,0,0-59.3-65.66" transform="translate(1977.1 871.34)"/><path class="cls-2" d="M-827.82,1433.91a49.3,49.3,0,0,1-49.29,49.32,49.35,49.35,0,0,1-49.34-49.32,49.35,49.35,0,0,1,49.34-49.34,49.3,49.3,0,0,1,49.29,49.34" transform="translate(1977.1 871.34)"/><path class="cls-4" d="M-837.76,1433.9a39.37,39.37,0,0,1-39.36,39.35,39.37,39.37,0,0,1-39.38-39.35,39.36,39.36,0,0,1,39.38-39.36,39.36,39.36,0,0,1,39.36,39.36" transform="translate(1977.1 871.34)"/><path class="cls-2" d="M-880.17,1454.12a28,28,0,0,1-5.57-.67,16,16,0,0,1-3.73-1.28l2.16-6.41a12,12,0,0,0,2.82,1.18,20,20,0,0,0,4.32.76v-11.29a36.82,36.82,0,0,1-3.43-1.74,13.6,13.6,0,0,1-3-2.27,11.12,11.12,0,0,1-2.15-3.19,11.22,11.22,0,0,1-.79-4.45c0-3.19.82-5.68,2.53-7.45a12,12,0,0,1,6.88-3.41v-5.09h5.81v4.85a25.59,25.59,0,0,1,4.28.65,31.25,31.25,0,0,1,3.4,1.17l-2,6.16a16.58,16.58,0,0,0-2.41-.89,16.66,16.66,0,0,0-3.27-.67v10.47c1.14.52,2.31,1.11,3.47,1.75a15.76,15.76,0,0,1,3.12,2.31,11.23,11.23,0,0,1,2.25,3.16,10.15,10.15,0,0,1,.84,4.32c0,3.41-.84,6.09-2.58,8a12.28,12.28,0,0,1-7.09,3.7V1459h-5.81Zm-2.16-30a3.56,3.56,0,0,0,1.28,2.8,17.11,17.11,0,0,0,3.28,2.07v-9.06c-1.74,0-3,.49-3.58,1.27a4.26,4.26,0,0,0-1,2.92m10.4,18.74a3.5,3.5,0,0,0-1.42-2.89,17.64,17.64,0,0,0-3.43-2.08v9.8a5.74,5.74,0,0,0,3.67-1.52,4.68,4.68,0,0,0,1.19-3.31" transform="translate(1977.1 871.34)"/><path class="cls-2" d="M-1666.74,1387a4.33,4.33,0,0,0,5.52,2,89.93,89.93,0,0,1,67.26,0,4.32,4.32,0,0,0,5.51-2,4,4,0,0,0-2.37-5.44,98.13,98.13,0,0,0-73.54,0,4,4,0,0,0-2.37,5.44" transform="translate(1977.1 871.34)"/><path class="cls-4" d="M-1565.25-580h626c-4.08-143.31-142.65-258.43-313-258.43s-308.92,115.12-313,258.43" transform="translate(1977.1 871.34)"/><path class="cls-5" d="M-1552.53-189.78h-145.93a44.8,44.8,0,0,1-44.8-44.8,44.8,44.8,0,0,1,44.8-44.8h145.93a44.8,44.8,0,0,1,44.8,44.8,44.8,44.8,0,0,1-44.8,44.8" transform="translate(1977.1 871.34)"/><path class="cls-6" d="M-1552.53-189.78h-145.93a44.8,44.8,0,0,1-44.8-44.8,44.8,44.8,0,0,1,44.8-44.8h145.93a44.8,44.8,0,0,1,44.8,44.8A44.8,44.8,0,0,1-1552.53-189.78Z" transform="translate(1977.1 871.34)"/></g><text class="cls-7" transform="translate(284.88 650.4) scale(1 1.27)"><tspan xml:space="preserve"> Name </tspan></text><g class="cls-3"><g class="cls-8"><g class="cls-9"><path class="cls-10" d="M-1552.36-190.36h-145.93a44.8,44.8,0,0,1-44.8-44.8,44.8,44.8,0,0,1,44.8-44.8h145.93a44.8,44.8,0,0,1,44.8,44.8,44.8,44.8,0,0,1-44.8,44.8" transform="translate(1977.1 871.34)"/></g></g><path class="cls-2" d="M-1526.28-248.9c-.74,1.4-1.2,3.06-2.27,4.14-9.49,9.64-19.08,19.17-28.65,28.72a3.73,3.73,0,0,1-1.4.86q-6.07,2-12.16,4a5.48,5.48,0,0,1-1.42.07,5.23,5.23,0,0,1,0-1.43c1.28-4,2.58-8,3.93-12a4.77,4.77,0,0,1,1.12-1.76q14.1-14.16,28.24-28.28a6.35,6.35,0,0,1,7.28-1.51,8.27,8.27,0,0,1,4.89,7l.4.21m-31.68,31,25.24-25.11-7.56-7.66-25.26,25.23,7.57,7.54m26.74-26.21c2-1.54,3.58-3.37,3-6.25a7.36,7.36,0,0,0-4.94-4.75,5.63,5.63,0,0,0-5.92,3.06l7.89,7.93m-28.14,27.72-7.52-7.65-1.12,3.35c-1.14,3.42-1.15,3.44,1.55,5.81a1.63,1.63,0,0,0,1.28.37c2-.59,4-1.29,5.81-1.88m-11.22,3.7,2.85-1-1.84-2.19-1,3.17" transform="translate(1977.1 871.34)"/><path class="cls-2" d="M-1560.14-225.53c-.19-.68-.45-1.09-.35-1.38a3.29,3.29,0,0,1,.86-1l16.67-16.69a3,3,0,0,1,.77-.72,5.88,5.88,0,0,1,1.3-.26,3.72,3.72,0,0,1-.27,1.18,6.8,6.8,0,0,1-1.05,1.09l-16.24,16.25c-.45.45-.94.87-1.69,1.56" transform="translate(1977.1 871.34)"/><path class="cls-2" d="M-1556.7-222.59c-.29-.23-.65-.39-.63-.51a1.92,1.92,0,0,1,.39-1c1.36-1.43,2.77-2.83,4.16-4.22l13.24-13.23a4,4,0,0,1,.9-.81,1,1,0,0,1,.9,0,1.1,1.1,0,0,1,0,.92c-.1.26-.39.45-.61.67l-17.33,17.33c-.31.31-.67.56-1.05.87" transform="translate(1977.1 871.34)"/><path class="cls-11" d="M-1709.28-268.41a18,18,0,0,1-18,18,18,18,0,0,1-18-18,18,18,0,0,1,18-18,18,18,0,0,1,18,18" transform="translate(1977.1 871.34)"/></g><text class="cls-12" transform="translate(241.14 618.5) scale(1 1.27)">-</text><g class="cls-3"><path class="cls-5" d="M-1295.95-185.36h-145.93a44.8,44.8,0,0,1-44.8-44.8,44.8,44.8,0,0,1,44.8-44.8h145.93a44.8,44.8,0,0,1,44.8,44.8,44.8,44.8,0,0,1-44.8,44.8" transform="translate(1977.1 871.34)"/><path class="cls-6" d="M-1295.95-185.36h-145.93a44.8,44.8,0,0,1-44.8-44.8,44.8,44.8,0,0,1,44.8-44.8h145.93a44.8,44.8,0,0,1,44.8,44.8A44.8,44.8,0,0,1-1295.95-185.36Z" transform="translate(1977.1 871.34)"/></g><text class="cls-7" transform="translate(541.47 654.83) scale(1 1.27)"><tspan xml:space="preserve"> Name </tspan></text><g class="cls-3"><g class="cls-8"><g class="cls-13"><path class="cls-10" d="M-1295.78-185.94h-145.93a44.8,44.8,0,0,1-44.8-44.8,44.8,44.8,0,0,1,44.8-44.8h145.93a44.8,44.8,0,0,1,44.8,44.8,44.8,44.8,0,0,1-44.8,44.8" transform="translate(1977.1 871.34)"/></g></g><path class="cls-2" d="M-1269.69-244.48c-.74,1.4-1.2,3.06-2.27,4.14-9.49,9.64-19.08,19.17-28.66,28.72a3.74,3.74,0,0,1-1.4.86q-6.07,2-12.16,4a5.45,5.45,0,0,1-1.42.07,5.23,5.23,0,0,1,0-1.43c1.28-4,2.58-8,3.93-12a4.78,4.78,0,0,1,1.12-1.76q14.1-14.16,28.24-28.28a6.35,6.35,0,0,1,7.28-1.51,8.27,8.27,0,0,1,4.89,7l.4.21m-31.68,31,25.24-25.11-7.56-7.66-25.26,25.22,7.57,7.54m26.74-26.21c2-1.54,3.58-3.38,3-6.25a7.36,7.36,0,0,0-4.94-4.75,5.63,5.63,0,0,0-5.92,3.06l7.89,7.93M-1302.77-212l-7.52-7.65-1.12,3.35c-1.14,3.42-1.15,3.44,1.55,5.81a1.63,1.63,0,0,0,1.28.37c2-.59,4-1.29,5.81-1.88M-1314-208.3l2.85-1-1.84-2.19-1,3.17" transform="translate(1977.1 871.34)"/><path class="cls-2" d="M-1303.56-221.11c-.19-.68-.45-1.09-.35-1.38a3.29,3.29,0,0,1,.86-1l16.67-16.69a3,3,0,0,1,.78-.72,5.93,5.93,0,0,1,1.3-.26,3.72,3.72,0,0,1-.27,1.18,6.71,6.71,0,0,1-1.05,1.09l-16.24,16.25c-.45.45-.94.87-1.69,1.56" transform="translate(1977.1 871.34)"/><path class="cls-2" d="M-1300.12-218.16c-.29-.23-.65-.39-.63-.51a1.92,1.92,0,0,1,.39-1c1.36-1.43,2.77-2.83,4.16-4.22l13.24-13.23a4,4,0,0,1,.9-.81,1,1,0,0,1,.91,0,1.1,1.1,0,0,1,0,.92c-.1.26-.39.45-.61.67L-1299.06-219c-.31.31-.67.56-1.05.88" transform="translate(1977.1 871.34)"/><path class="cls-11" d="M-1452.69-264a18,18,0,0,1-18,18,18,18,0,0,1-18-18,18,18,0,0,1,18-18,18,18,0,0,1,18,18" transform="translate(1977.1 871.34)"/></g><text class="cls-12" transform="translate(497.72 622.93) scale(1 1.27)">-</text><g class="cls-3"><path class="cls-5" d="M-1038.95-181.36h-145.93a44.8,44.8,0,0,1-44.8-44.8,44.8,44.8,0,0,1,44.8-44.8h145.93a44.8,44.8,0,0,1,44.8,44.8,44.8,44.8,0,0,1-44.8,44.8" transform="translate(1977.1 871.34)"/><path class="cls-6" d="M-1038.95-181.36h-145.93a44.8,44.8,0,0,1-44.8-44.8,44.8,44.8,0,0,1,44.8-44.8h145.93a44.8,44.8,0,0,1,44.8,44.8A44.8,44.8,0,0,1-1038.95-181.36Z" transform="translate(1977.1 871.34)"/></g><text class="cls-7" transform="translate(798.47 658.83) scale(1 1.27)"><tspan xml:space="preserve"> Name </tspan></text><g class="cls-3"><g class="cls-8"><g class="cls-14"><path class="cls-10" d="M-1038.78-181.94h-145.93a44.8,44.8,0,0,1-44.8-44.8,44.8,44.8,0,0,1,44.8-44.8h145.93a44.8,44.8,0,0,1,44.8,44.8,44.8,44.8,0,0,1-44.8,44.8" transform="translate(1977.1 871.34)"/></g></g><path class="cls-2" d="M-1012.69-240.48c-.74,1.4-1.2,3.06-2.27,4.14-9.49,9.64-19.08,19.17-28.66,28.72a3.74,3.74,0,0,1-1.4.86q-6.07,2-12.16,4a5.45,5.45,0,0,1-1.42.07,5.23,5.23,0,0,1,0-1.43c1.28-4,2.58-8,3.93-12a4.78,4.78,0,0,1,1.12-1.76q14.1-14.16,28.24-28.28a6.35,6.35,0,0,1,7.28-1.51,8.27,8.27,0,0,1,4.89,7l.4.21m-31.68,31,25.24-25.11-7.56-7.66-25.26,25.22,7.57,7.54m26.74-26.21c2-1.54,3.58-3.38,3-6.25a7.36,7.36,0,0,0-4.94-4.75,5.63,5.63,0,0,0-5.92,3.06l7.89,7.93M-1045.77-208l-7.52-7.65-1.12,3.35c-1.14,3.42-1.16,3.44,1.55,5.81a1.63,1.63,0,0,0,1.28.37c2-.59,4-1.29,5.81-1.88M-1057-204.3l2.85-1-1.84-2.19-1,3.17" transform="translate(1977.1 871.34)"/><path class="cls-2" d="M-1046.56-217.11c-.19-.68-.45-1.09-.35-1.38a3.29,3.29,0,0,1,.86-1l16.67-16.69a3,3,0,0,1,.78-.72,5.93,5.93,0,0,1,1.3-.26,3.72,3.72,0,0,1-.27,1.18,6.75,6.75,0,0,1-1,1.09l-16.24,16.25c-.45.45-.94.87-1.69,1.56" transform="translate(1977.1 871.34)"/><path class="cls-2" d="M-1043.12-214.16c-.29-.23-.65-.39-.63-.51a1.92,1.92,0,0,1,.39-1c1.36-1.43,2.77-2.83,4.16-4.22l13.24-13.23a4,4,0,0,1,.9-.81,1,1,0,0,1,.91,0,1.1,1.1,0,0,1,0,.92c-.1.26-.39.45-.61.67L-1042.06-215c-.31.31-.67.56-1.05.88" transform="translate(1977.1 871.34)"/><path class="cls-11" d="M-1195.69-260a18,18,0,0,1-18,18,18,18,0,0,1-18-18,18,18,0,0,1,18-18,18,18,0,0,1,18,18" transform="translate(1977.1 871.34)"/></g><text class="cls-12" transform="translate(754.72 626.93) scale(1 1.27)">-</text><path class="cls-2" d="M350.47,146.53c-3.31,6.24-5.38,13.7-10.13,18.53C297.91,208.16,255,250.8,212.19,293.51a16.74,16.74,0,0,1-6.27,3.83q-27.13,9.12-54.4,17.85c-2,.63-4.24.24-6.37.32,0-2.13-.41-4.43.22-6.38,5.72-18,11.54-35.91,17.6-53.77a21.36,21.36,0,0,1,5-7.88Q231,184.14,294.26,121c9.34-9.33,21.2-11.64,32.54-6.77,12.35,5.3,21.94,19,21.88,31.34l1.78.94M208.8,285,321.7,172.72l-33.8-34.25-113,112.81L208.8,285M328.4,167.79c9.08-6.89,16-15.1,13.24-27.94-1.9-8.88-13.44-19.86-22.09-21.23-10.93-1.73-20.24,3.25-26.45,13.7l35.3,35.47m-125.84,124-33.64-34.2c-1.56,4.68-3.28,9.82-5,15-5.11,15.3-5.17,15.37,6.92,26,1.38,1.21,4.09,2.12,5.74,1.64,9.06-2.64,18-5.76,26-8.39m-50.18,16.57,12.73-4.38-8.21-9.79-4.52,14.17" transform="translate(1977.1 871.34)"/><path class="cls-2" d="M199,251c-.84-3-2-4.9-1.56-6.18.64-1.78,2.42-3.21,3.85-4.64q37.25-37.33,74.55-74.63c1.12-1.13,2.11-2.62,3.47-3.21,1.77-.76,3.86-.8,5.82-1.14-.37,1.78-.32,3.83-1.22,5.28-1.16,1.88-3.09,3.28-4.69,4.88q-36.32,36.34-72.64,72.67c-2,2-4.22,3.89-7.58,7" transform="translate(1977.1 871.34)"/><path class="cls-2" d="M214.42,264.21c-1.28-1-2.88-1.76-2.81-2.3a8.6,8.6,0,0,1,1.73-4.66c6.09-6.41,12.37-12.64,18.63-18.89q29.6-29.59,59.22-59.16c1.28-1.28,2.46-2.84,4-3.62,1.12-.57,3.38-.62,4,.1s.58,2.87.11,4.13-1.76,2-2.72,3q-38.75,38.76-77.51,77.5c-1.39,1.39-3,2.52-4.71,3.91" transform="translate(1977.1 871.34)"/><path class="cls-11" d="M-941.69-257a18,18,0,0,1-18,18,18,18,0,0,1-18-18,18,18,0,0,1,18-18,18,18,0,0,1,18,18" transform="translate(1977.1 871.34)"/><rect class="cls-1" x="161.93" width="1125.84" height="2420"/><text class="cls-12" transform="translate(1008.72 629.93) scale(1 1.27)">-</text><g class="cls-3"><path class="cls-2" d="M-775.17-382.54H-928a33.09,33.09,0,0,1-33.1-33.1v-19A33.09,33.09,0,0,1-928-467.77h152.81a33.1,33.1,0,0,1,33.1,33.09v19a33.1,33.1,0,0,1-33.1,33.1" transform="translate(1977.1 871.34)"/></g><text class="cls-15" transform="translate(1070.28 462.19) scale(1 1.02)"><tspan class="cls-16">D</tspan><tspan x="31.38" y="0">one</tspan></text><g class="cls-3"><path class="cls-5" d="M-1551.73-52.07h-145.93a44.8,44.8,0,0,1-44.8-44.8,44.8,44.8,0,0,1,44.8-44.8h145.93a44.8,44.8,0,0,1,44.8,44.8,44.8,44.8,0,0,1-44.8,44.8" transform="translate(1977.1 871.34)"/><path class="cls-6" d="M-1551.73-52.07h-145.93a44.8,44.8,0,0,1-44.8-44.8,44.8,44.8,0,0,1,44.8-44.8h145.93a44.8,44.8,0,0,1,44.8,44.8A44.8,44.8,0,0,1-1551.73-52.07Z" transform="translate(1977.1 871.34)"/></g><text class="cls-7" transform="translate(285.69 788.12) scale(1 1.27)"><tspan xml:space="preserve"> Name </tspan></text><g class="cls-3"><g class="cls-8"><g class="cls-17"><path class="cls-10" d="M-1551.56-52.65h-145.93a44.8,44.8,0,0,1-44.8-44.8,44.8,44.8,0,0,1,44.8-44.8h145.93a44.8,44.8,0,0,1,44.8,44.8,44.8,44.8,0,0,1-44.8,44.8" transform="translate(1977.1 871.34)"/></g></g><path class="cls-2" d="M-1525.47-111.19c-.74,1.4-1.2,3.07-2.27,4.14-9.49,9.64-19.08,19.17-28.65,28.72a3.72,3.72,0,0,1-1.4.86q-6.07,2-12.17,4a5.49,5.49,0,0,1-1.42.07,5.23,5.23,0,0,1,0-1.43c1.28-4,2.58-8,3.93-12a4.78,4.78,0,0,1,1.12-1.76q14.1-14.16,28.24-28.28a6.35,6.35,0,0,1,7.28-1.51,8.27,8.27,0,0,1,4.89,7l.4.21m-31.68,31,25.24-25.11-7.56-7.66-25.26,25.22,7.57,7.54m26.74-26.21c2-1.54,3.58-3.38,3-6.25a7.36,7.36,0,0,0-4.94-4.75,5.63,5.63,0,0,0-5.92,3.06l7.89,7.93m-28.14,27.72-7.52-7.65-1.12,3.35c-1.14,3.42-1.15,3.44,1.55,5.81a1.63,1.63,0,0,0,1.28.37c2-.59,4-1.29,5.81-1.88m-11.22,3.7,2.85-1-1.84-2.19-1,3.17" transform="translate(1977.1 871.34)"/><path class="cls-2" d="M-1559.34-87.82c-.19-.68-.45-1.1-.35-1.38a3.29,3.29,0,0,1,.86-1l16.67-16.69a3,3,0,0,1,.77-.72,5.88,5.88,0,0,1,1.3-.26,3.76,3.76,0,0,1-.27,1.18,6.84,6.84,0,0,1-1,1.09l-16.24,16.25c-.45.45-.94.87-1.69,1.56" transform="translate(1977.1 871.34)"/><path class="cls-2" d="M-1555.9-84.88c-.29-.22-.65-.39-.63-.51a1.92,1.92,0,0,1,.39-1c1.36-1.43,2.77-2.83,4.16-4.22l13.24-13.23a4,4,0,0,1,.9-.81,1,1,0,0,1,.9,0,1.1,1.1,0,0,1,0,.92c-.1.26-.39.45-.61.67l-17.33,17.33c-.31.31-.67.56-1.05.87" transform="translate(1977.1 871.34)"/><path class="cls-11" d="M-1708.47-130.7a18,18,0,0,1-18,18,18,18,0,0,1-18-18,18,18,0,0,1,18-18,18,18,0,0,1,18,18" transform="translate(1977.1 871.34)"/></g><text class="cls-12" transform="translate(241.94 756.22) scale(1 1.27)">-</text><g class="cls-3"><path class="cls-5" d="M-1295.14-47.64h-145.93a44.8,44.8,0,0,1-44.8-44.8,44.8,44.8,0,0,1,44.8-44.8h145.93a44.8,44.8,0,0,1,44.8,44.8,44.8,44.8,0,0,1-44.8,44.8" transform="translate(1977.1 871.34)"/><path class="cls-6" d="M-1295.14-47.64h-145.93a44.8,44.8,0,0,1-44.8-44.8,44.8,44.8,0,0,1,44.8-44.8h145.93a44.8,44.8,0,0,1,44.8,44.8A44.8,44.8,0,0,1-1295.14-47.64Z" transform="translate(1977.1 871.34)"/></g><text class="cls-7" transform="translate(542.27 792.54) scale(1 1.27)"><tspan xml:space="preserve"> Name </tspan></text><g class="cls-3"><g class="cls-8"><g class="cls-18"><path class="cls-10" d="M-1295-48.22h-145.93a44.8,44.8,0,0,1-44.8-44.8,44.8,44.8,0,0,1,44.8-44.8H-1295a44.8,44.8,0,0,1,44.8,44.8,44.8,44.8,0,0,1-44.8,44.8" transform="translate(1977.1 871.34)"/></g></g><path class="cls-2" d="M-1268.89-106.76c-.74,1.4-1.2,3.06-2.27,4.14-9.49,9.64-19.08,19.17-28.66,28.72a3.73,3.73,0,0,1-1.4.86q-6.07,2-12.16,4a5.49,5.49,0,0,1-1.42.07,5.23,5.23,0,0,1,0-1.43c1.28-4,2.58-8,3.93-12a4.78,4.78,0,0,1,1.12-1.76q14.1-14.16,28.24-28.28a6.35,6.35,0,0,1,7.28-1.51,8.27,8.27,0,0,1,4.89,7l.4.21m-31.68,31,25.24-25.11-7.56-7.66-25.26,25.23,7.57,7.54m26.74-26.21c2-1.54,3.58-3.37,3-6.25a7.36,7.36,0,0,0-4.94-4.75,5.63,5.63,0,0,0-5.92,3.06l7.89,7.93M-1302-74.29l-7.52-7.65-1.12,3.35c-1.14,3.42-1.15,3.44,1.55,5.81a1.63,1.63,0,0,0,1.28.37c2-.59,4-1.29,5.81-1.88m-11.22,3.7,2.85-1-1.84-2.19-1,3.17" transform="translate(1977.1 871.34)"/><path class="cls-2" d="M-1302.75-83.39c-.19-.68-.45-1.09-.35-1.38a3.28,3.28,0,0,1,.86-1l16.67-16.69a3,3,0,0,1,.78-.72,5.86,5.86,0,0,1,1.3-.26,3.72,3.72,0,0,1-.27,1.18,6.79,6.79,0,0,1-1,1.09L-1301.06-85c-.45.45-.94.87-1.69,1.56" transform="translate(1977.1 871.34)"/><path class="cls-2" d="M-1299.31-80.45c-.29-.23-.65-.39-.63-.51a1.93,1.93,0,0,1,.39-1c1.36-1.43,2.77-2.83,4.16-4.22l13.24-13.23a4,4,0,0,1,.9-.81,1,1,0,0,1,.91,0,1.1,1.1,0,0,1,0,.92c-.1.26-.39.45-.61.67l-17.33,17.33c-.31.31-.67.56-1.05.87" transform="translate(1977.1 871.34)"/><path class="cls-11" d="M-1451.89-126.27a18,18,0,0,1-18,18,18,18,0,0,1-18-18,18,18,0,0,1,18-18,18,18,0,0,1,18,18" transform="translate(1977.1 871.34)"/></g><text class="cls-12" transform="translate(498.52 760.64) scale(1 1.27)">-</text><g class="cls-3"><path class="cls-5" d="M-1038.14-43.64h-145.93a44.8,44.8,0,0,1-44.8-44.8,44.8,44.8,0,0,1,44.8-44.8h145.93a44.8,44.8,0,0,1,44.8,44.8,44.8,44.8,0,0,1-44.8,44.8" transform="translate(1977.1 871.34)"/><path class="cls-6" d="M-1038.14-43.64h-145.93a44.8,44.8,0,0,1-44.8-44.8,44.8,44.8,0,0,1,44.8-44.8h145.93a44.8,44.8,0,0,1,44.8,44.8A44.8,44.8,0,0,1-1038.14-43.64Z" transform="translate(1977.1 871.34)"/></g><text class="cls-7" transform="translate(799.27 796.54) scale(1 1.27)"><tspan xml:space="preserve"> Name </tspan></text><g class="cls-3"><g class="cls-8"><g class="cls-19"><path class="cls-10" d="M-1038-44.22h-145.93a44.8,44.8,0,0,1-44.8-44.8,44.8,44.8,0,0,1,44.8-44.8H-1038A44.8,44.8,0,0,1-993.18-89a44.8,44.8,0,0,1-44.8,44.8" transform="translate(1977.1 871.34)"/></g></g><path class="cls-2" d="M-1011.89-102.76c-.74,1.4-1.2,3.06-2.27,4.14-9.49,9.64-19.08,19.17-28.66,28.72a3.73,3.73,0,0,1-1.4.86q-6.07,2-12.16,4a5.49,5.49,0,0,1-1.42.07,5.23,5.23,0,0,1,0-1.43c1.28-4,2.58-8,3.93-12a4.78,4.78,0,0,1,1.12-1.76q14.1-14.16,28.24-28.28a6.35,6.35,0,0,1,7.28-1.51,8.27,8.27,0,0,1,4.89,7l.4.21m-31.68,31,25.24-25.11-7.56-7.66-25.26,25.23,7.57,7.54M-1016.83-98c2-1.54,3.58-3.38,3-6.25a7.36,7.36,0,0,0-4.94-4.75,5.63,5.63,0,0,0-5.92,3.06l7.89,7.93M-1045-70.29l-7.52-7.65-1.12,3.35c-1.14,3.42-1.15,3.44,1.55,5.81a1.63,1.63,0,0,0,1.28.37c2-.59,4-1.29,5.81-1.88m-11.22,3.7,2.85-1-1.84-2.19-1,3.17" transform="translate(1977.1 871.34)"/><path class="cls-2" d="M-1045.75-79.39c-.19-.68-.45-1.09-.35-1.38a3.28,3.28,0,0,1,.86-1l16.67-16.69a3,3,0,0,1,.78-.72,5.86,5.86,0,0,1,1.3-.26,3.72,3.72,0,0,1-.27,1.18,6.79,6.79,0,0,1-1,1.09L-1044.06-81c-.45.45-.94.87-1.69,1.56" transform="translate(1977.1 871.34)"/><path class="cls-2" d="M-1042.31-76.45c-.29-.23-.65-.39-.63-.51a1.93,1.93,0,0,1,.39-1c1.36-1.43,2.77-2.83,4.16-4.22l13.24-13.23a4,4,0,0,1,.9-.81,1,1,0,0,1,.91,0,1.1,1.1,0,0,1,0,.92c-.1.26-.39.45-.61.67l-17.33,17.33c-.31.31-.67.56-1.05.87" transform="translate(1977.1 871.34)"/><path class="cls-11" d="M-1194.89-122.27a18,18,0,0,1-18,18,18,18,0,0,1-18-18,18,18,0,0,1,18-18,18,18,0,0,1,18,18" transform="translate(1977.1 871.34)"/></g><text class="cls-12" transform="translate(755.52 764.64) scale(1 1.27)">-</text><g class="cls-3"><path class="cls-5" d="M-784.14-40.64H-930.08a44.8,44.8,0,0,1-44.8-44.8,44.8,44.8,0,0,1,44.8-44.8h145.93a44.8,44.8,0,0,1,44.8,44.8,44.8,44.8,0,0,1-44.8,44.8" transform="translate(1977.1 871.34)"/><path class="cls-6" d="M-784.14-40.64H-930.08a44.8,44.8,0,0,1-44.8-44.8,44.8,44.8,0,0,1,44.8-44.8h145.93a44.8,44.8,0,0,1,44.8,44.8A44.8,44.8,0,0,1-784.14-40.64Z" transform="translate(1977.1 871.34)"/></g><text class="cls-7" transform="translate(1053.27 799.54) scale(1 1.27)"><tspan xml:space="preserve"> Name </tspan></text><g class="cls-3"><g class="cls-8"><g class="cls-20"><path class="cls-10" d="M-784-41.22H-929.91A44.8,44.8,0,0,1-974.71-86a44.8,44.8,0,0,1,44.8-44.8H-784A44.8,44.8,0,0,1-739.18-86,44.8,44.8,0,0,1-784-41.22" transform="translate(1977.1 871.34)"/></g></g><path class="cls-2" d="M-757.89-99.76c-.74,1.4-1.2,3.06-2.27,4.14-9.49,9.64-19.08,19.17-28.66,28.72a3.73,3.73,0,0,1-1.4.86q-6.07,2-12.16,4a5.49,5.49,0,0,1-1.42.07,5.23,5.23,0,0,1,0-1.43c1.28-4,2.58-8,3.93-12a4.78,4.78,0,0,1,1.12-1.76q14.1-14.16,28.24-28.28a6.35,6.35,0,0,1,7.28-1.51,8.27,8.27,0,0,1,4.89,7l.4.21m-31.68,31,25.24-25.11-7.56-7.66-25.26,25.23,7.57,7.54M-762.83-95c2-1.54,3.58-3.37,3-6.25A7.36,7.36,0,0,0-764.8-106a5.63,5.63,0,0,0-5.92,3.06l7.89,7.93M-791-67.29l-7.52-7.65-1.12,3.35c-1.14,3.42-1.15,3.44,1.55,5.81a1.63,1.63,0,0,0,1.28.37c2-.59,4-1.29,5.81-1.88m-11.22,3.7,2.85-1-1.84-2.19-1,3.17" transform="translate(1977.1 871.34)"/><path class="cls-2" d="M-791.75-76.39c-.19-.68-.45-1.09-.35-1.38a3.28,3.28,0,0,1,.86-1l16.67-16.69a3,3,0,0,1,.78-.72,5.86,5.86,0,0,1,1.3-.26,3.72,3.72,0,0,1-.27,1.18,6.79,6.79,0,0,1-1,1.09L-790.06-78c-.45.45-.94.87-1.69,1.56" transform="translate(1977.1 871.34)"/><path class="cls-2" d="M-788.31-73.45c-.29-.23-.65-.39-.63-.51a1.93,1.93,0,0,1,.39-1c1.36-1.43,2.77-2.83,4.17-4.22l13.24-13.23a4,4,0,0,1,.9-.81,1,1,0,0,1,.91,0,1.1,1.1,0,0,1,0,.92c-.1.26-.39.45-.61.67l-17.33,17.33c-.31.31-.68.56-1.05.87" transform="translate(1977.1 871.34)"/><path class="cls-11" d="M-940.89-119.27a18,18,0,0,1-18,18,18,18,0,0,1-18-18,18,18,0,0,1,18-18,18,18,0,0,1,18,18" transform="translate(1977.1 871.34)"/></g><text class="cls-12" transform="translate(1009.52 767.64) scale(1 1.27)">-</text><g class="cls-3"><path class="cls-5" d="M-1553.13,63.06h-145.93a44.8,44.8,0,0,1-44.8-44.8,44.8,44.8,0,0,1,44.8-44.8h145.93a44.8,44.8,0,0,1,44.8,44.8,44.8,44.8,0,0,1-44.8,44.8" transform="translate(1977.1 871.34)"/><path class="cls-6" d="M-1553.13,63.06h-145.93a44.8,44.8,0,0,1-44.8-44.8,44.8,44.8,0,0,1,44.8-44.8h145.93a44.8,44.8,0,0,1,44.8,44.8A44.8,44.8,0,0,1-1553.13,63.06Z" transform="translate(1977.1 871.34)"/></g><text class="cls-7" transform="translate(284.29 903.24) scale(1 1.27)"><tspan xml:space="preserve"> Name </tspan></text><g class="cls-3"><g class="cls-8"><g class="cls-21"><path class="cls-10" d="M-1553,62.48h-145.93a44.8,44.8,0,0,1-44.8-44.8,44.8,44.8,0,0,1,44.8-44.8H-1553a44.8,44.8,0,0,1,44.8,44.8,44.8,44.8,0,0,1-44.8,44.8" transform="translate(1977.1 871.34)"/></g></g><path class="cls-2" d="M-1526.88,3.93c-.74,1.4-1.2,3.06-2.27,4.14-9.49,9.64-19.08,19.17-28.66,28.72a3.74,3.74,0,0,1-1.4.86q-6.07,2-12.16,4a5.45,5.45,0,0,1-1.42.07,5.23,5.23,0,0,1,0-1.43c1.28-4,2.58-8,3.93-12a4.79,4.79,0,0,1,1.11-1.76q14.1-14.16,28.24-28.28a6.35,6.35,0,0,1,7.28-1.51,8.27,8.27,0,0,1,4.89,7l.4.21m-31.68,31,25.24-25.11-7.56-7.66-25.26,25.23,7.57,7.54m26.74-26.21c2-1.54,3.58-3.38,3-6.25a7.36,7.36,0,0,0-4.94-4.75A5.63,5.63,0,0,0-1539.7.76l7.89,7.93m-28.14,27.72-7.52-7.65-1.12,3.35c-1.14,3.42-1.15,3.44,1.55,5.81a1.63,1.63,0,0,0,1.28.37c2-.59,4-1.29,5.81-1.88m-11.22,3.71,2.85-1-1.84-2.19-1,3.17" transform="translate(1977.1 871.34)"/><path class="cls-2" d="M-1560.74,27.3c-.19-.68-.45-1.09-.35-1.38a3.28,3.28,0,0,1,.86-1l16.67-16.69a3,3,0,0,1,.78-.72,5.93,5.93,0,0,1,1.3-.26,3.72,3.72,0,0,1-.27,1.18,6.71,6.71,0,0,1-1.05,1.09L-1559,25.75c-.45.45-.94.87-1.69,1.56" transform="translate(1977.1 871.34)"/><path class="cls-2" d="M-1557.3,30.25c-.29-.23-.65-.39-.63-.51a1.92,1.92,0,0,1,.39-1c1.36-1.43,2.77-2.83,4.17-4.22l13.24-13.23a4,4,0,0,1,.9-.81,1,1,0,0,1,.9,0,1.1,1.1,0,0,1,0,.92c-.1.26-.39.45-.61.67l-17.33,17.33c-.31.31-.67.56-1.05.88" transform="translate(1977.1 871.34)"/><path class="cls-11" d="M-1709.88-15.57a18,18,0,0,1-18,18,18,18,0,0,1-18-18,18,18,0,0,1,18-18,18,18,0,0,1,18,18" transform="translate(1977.1 871.34)"/></g><text class="cls-12" transform="translate(240.54 871.34) scale(1 1.27)">-</text><g class="cls-3"><path class="cls-5" d="M-1296.55,67.48h-145.93a44.8,44.8,0,0,1-44.8-44.8,44.8,44.8,0,0,1,44.8-44.8h145.93a44.8,44.8,0,0,1,44.8,44.8,44.8,44.8,0,0,1-44.8,44.8" transform="translate(1977.1 871.34)"/><path class="cls-6" d="M-1296.55,67.48h-145.93a44.8,44.8,0,0,1-44.8-44.8,44.8,44.8,0,0,1,44.8-44.8h145.93a44.8,44.8,0,0,1,44.8,44.8A44.8,44.8,0,0,1-1296.55,67.48Z" transform="translate(1977.1 871.34)"/></g><text class="cls-7" transform="translate(540.87 907.67) scale(1 1.27)"><tspan xml:space="preserve"> Name </tspan></text><g class="cls-3"><g class="cls-8"><g class="cls-22"><path class="cls-10" d="M-1296.38,66.9h-145.93a44.8,44.8,0,0,1-44.8-44.8,44.8,44.8,0,0,1,44.8-44.8h145.93a44.8,44.8,0,0,1,44.8,44.8,44.8,44.8,0,0,1-44.8,44.8" transform="translate(1977.1 871.34)"/></g></g><path class="cls-2" d="M-1270.29,8.36c-.74,1.4-1.2,3.07-2.27,4.14-9.49,9.64-19.08,19.17-28.66,28.72a3.75,3.75,0,0,1-1.4.86q-6.07,2-12.16,4a5.46,5.46,0,0,1-1.42.07,5.22,5.22,0,0,1,0-1.43c1.28-4,2.58-8,3.93-12a4.78,4.78,0,0,1,1.12-1.76q14.1-14.16,28.24-28.28a6.35,6.35,0,0,1,7.28-1.51,8.27,8.27,0,0,1,4.89,7l.4.21m-31.68,31,25.24-25.11-7.56-7.66-25.26,25.22,7.57,7.54m26.74-26.21c2-1.54,3.58-3.38,3-6.25a7.36,7.36,0,0,0-4.94-4.75,5.63,5.63,0,0,0-5.92,3.06l7.89,7.93m-28.14,27.72-7.52-7.65-1.12,3.35c-1.14,3.42-1.15,3.44,1.55,5.81a1.63,1.63,0,0,0,1.28.37c2-.59,4-1.29,5.81-1.88m-11.22,3.71,2.85-1-1.84-2.19-1,3.17" transform="translate(1977.1 871.34)"/><path class="cls-2" d="M-1304.15,31.73c-.19-.68-.45-1.1-.35-1.38a3.28,3.28,0,0,1,.86-1L-1287,12.62a3,3,0,0,1,.78-.72,5.85,5.85,0,0,1,1.3-.26,3.73,3.73,0,0,1-.27,1.18,6.76,6.76,0,0,1-1.05,1.09l-16.24,16.25c-.45.45-.94.87-1.69,1.56" transform="translate(1977.1 871.34)"/><path class="cls-2" d="M-1300.71,34.67c-.29-.22-.65-.39-.63-.51a1.92,1.92,0,0,1,.39-1c1.36-1.43,2.77-2.83,4.16-4.22l13.24-13.23a3.94,3.94,0,0,1,.9-.81,1,1,0,0,1,.9,0,1.1,1.1,0,0,1,0,.92c-.1.26-.39.45-.61.67l-17.33,17.33c-.31.31-.67.56-1.05.87" transform="translate(1977.1 871.34)"/><path class="cls-11" d="M-1453.29-11.15a18,18,0,0,1-18,18,18,18,0,0,1-18-18,18,18,0,0,1,18-18,18,18,0,0,1,18,18" transform="translate(1977.1 871.34)"/></g><text class="cls-12" transform="translate(497.12 875.77) scale(1 1.27)">-</text><g class="cls-3"><path class="cls-5" d="M-1039.55,71.48h-145.93a44.8,44.8,0,0,1-44.8-44.8,44.8,44.8,0,0,1,44.8-44.8h145.93a44.8,44.8,0,0,1,44.8,44.8,44.8,44.8,0,0,1-44.8,44.8" transform="translate(1977.1 871.34)"/><path class="cls-6" d="M-1039.55,71.48h-145.93a44.8,44.8,0,0,1-44.8-44.8,44.8,44.8,0,0,1,44.8-44.8h145.93a44.8,44.8,0,0,1,44.8,44.8A44.8,44.8,0,0,1-1039.55,71.48Z" transform="translate(1977.1 871.34)"/></g><text class="cls-7" transform="translate(797.87 911.67) scale(1 1.27)"><tspan xml:space="preserve"> Name </tspan></text><g class="cls-3"><g class="cls-8"><g class="cls-23"><path class="cls-10" d="M-1039.38,70.9h-145.93a44.8,44.8,0,0,1-44.8-44.8,44.8,44.8,0,0,1,44.8-44.8h145.93a44.8,44.8,0,0,1,44.8,44.8,44.8,44.8,0,0,1-44.8,44.8" transform="translate(1977.1 871.34)"/></g></g><path class="cls-2" d="M-1013.29,12.36c-.74,1.4-1.2,3.07-2.27,4.14-9.49,9.64-19.08,19.17-28.65,28.72a3.75,3.75,0,0,1-1.4.86q-6.07,2-12.16,4a5.46,5.46,0,0,1-1.42.07,5.22,5.22,0,0,1,0-1.43c1.28-4,2.58-8,3.93-12a4.78,4.78,0,0,1,1.12-1.76q14.1-14.16,28.24-28.28a6.35,6.35,0,0,1,7.28-1.51,8.27,8.27,0,0,1,4.89,7l.4.21m-31.68,31,25.24-25.11-7.56-7.66-25.26,25.22,7.57,7.54m26.74-26.21c2-1.54,3.58-3.38,3-6.25a7.36,7.36,0,0,0-4.94-4.75,5.63,5.63,0,0,0-5.91,3.06l7.89,7.93m-28.14,27.72-7.52-7.65-1.12,3.35c-1.14,3.42-1.16,3.44,1.55,5.81a1.63,1.63,0,0,0,1.28.37c2-.59,4-1.29,5.81-1.88m-11.22,3.71,2.85-1-1.84-2.19-1,3.17" transform="translate(1977.1 871.34)"/><path class="cls-2" d="M-1047.15,35.73c-.19-.68-.45-1.1-.35-1.38a3.28,3.28,0,0,1,.86-1L-1030,16.62a3,3,0,0,1,.78-.72,5.85,5.85,0,0,1,1.3-.26,3.73,3.73,0,0,1-.27,1.18,6.79,6.79,0,0,1-1.05,1.09l-16.24,16.25c-.45.45-.94.87-1.69,1.56" transform="translate(1977.1 871.34)"/><path class="cls-2" d="M-1043.71,38.67c-.29-.22-.65-.39-.63-.51a1.92,1.92,0,0,1,.39-1c1.36-1.43,2.77-2.83,4.16-4.22l13.24-13.23a3.94,3.94,0,0,1,.9-.81,1,1,0,0,1,.9,0,1.1,1.1,0,0,1,0,.92c-.1.26-.39.45-.61.67l-17.33,17.33c-.31.31-.67.56-1.05.87" transform="translate(1977.1 871.34)"/><path class="cls-11" d="M-1196.29-7.15a18,18,0,0,1-18,18,18,18,0,0,1-18-18,18,18,0,0,1,18-18,18,18,0,0,1,18,18" transform="translate(1977.1 871.34)"/></g><text class="cls-12" transform="translate(754.12 879.77) scale(1 1.27)">-</text><g class="cls-3"><path class="cls-5" d="M-785.55,74.48H-931.48a44.8,44.8,0,0,1-44.8-44.8,44.8,44.8,0,0,1,44.8-44.8h145.93a44.8,44.8,0,0,1,44.8,44.8,44.8,44.8,0,0,1-44.8,44.8" transform="translate(1977.1 871.34)"/><path class="cls-6" d="M-785.55,74.48H-931.48a44.8,44.8,0,0,1-44.8-44.8,44.8,44.8,0,0,1,44.8-44.8h145.93a44.8,44.8,0,0,1,44.8,44.8A44.8,44.8,0,0,1-785.55,74.48Z" transform="translate(1977.1 871.34)"/></g><text class="cls-7" transform="translate(1051.87 914.67) scale(1 1.27)"><tspan xml:space="preserve"> Name </tspan></text><g class="cls-3"><g class="cls-8"><g class="cls-24"><path class="cls-10" d="M-785.38,73.9H-931.31a44.8,44.8,0,0,1-44.8-44.8,44.8,44.8,0,0,1,44.8-44.8h145.93a44.8,44.8,0,0,1,44.8,44.8,44.8,44.8,0,0,1-44.8,44.8" transform="translate(1977.1 871.34)"/></g></g><path class="cls-2" d="M-759.29,15.36c-.74,1.4-1.2,3.07-2.27,4.14-9.49,9.64-19.08,19.17-28.66,28.72a3.75,3.75,0,0,1-1.4.86q-6.07,2-12.16,4a5.46,5.46,0,0,1-1.42.07,5.22,5.22,0,0,1,0-1.43c1.28-4,2.58-8,3.93-12a4.78,4.78,0,0,1,1.12-1.76Q-786,23.77-771.86,9.66a6.35,6.35,0,0,1,7.28-1.51,8.26,8.26,0,0,1,4.89,7l.4.21m-31.68,31,25.24-25.11-7.56-7.66-25.26,25.22,7.57,7.54m26.74-26.21c2-1.54,3.58-3.38,3-6.25a7.36,7.36,0,0,0-4.94-4.75,5.63,5.63,0,0,0-5.92,3.06l7.89,7.93m-28.14,27.72-7.52-7.65L-801,43.53c-1.14,3.42-1.16,3.44,1.55,5.81a1.63,1.63,0,0,0,1.28.37c2-.59,4-1.29,5.81-1.88m-11.22,3.71,2.85-1-1.84-2.19-1,3.17" transform="translate(1977.1 871.34)"/><path class="cls-2" d="M-793.15,38.73c-.19-.68-.45-1.1-.35-1.38a3.28,3.28,0,0,1,.86-1L-776,19.62a3,3,0,0,1,.78-.72,5.85,5.85,0,0,1,1.3-.26,3.73,3.73,0,0,1-.27,1.18,6.79,6.79,0,0,1-1.05,1.09l-16.24,16.25c-.45.45-.94.87-1.69,1.56" transform="translate(1977.1 871.34)"/><path class="cls-2" d="M-789.71,41.67c-.29-.22-.65-.39-.63-.51a1.92,1.92,0,0,1,.39-1c1.36-1.43,2.77-2.83,4.17-4.22l13.24-13.23a4,4,0,0,1,.9-.81,1,1,0,0,1,.9,0,1.1,1.1,0,0,1,0,.92c-.1.26-.39.45-.61.67L-788.66,40.8c-.31.31-.67.56-1.05.87" transform="translate(1977.1 871.34)"/><path class="cls-11" d="M-942.29-4.15a18,18,0,0,1-18,18,18,18,0,0,1-18-18,18,18,0,0,1,18-18,18,18,0,0,1,18,18" transform="translate(1977.1 871.34)"/></g><text class="cls-12" transform="translate(1008.12 882.77) scale(1 1.27)">-</text><g class="cls-3"><path class="cls-5" d="M-1552.33,200.77h-145.93a44.8,44.8,0,0,1-44.8-44.8,44.8,44.8,0,0,1,44.8-44.8h145.93a44.8,44.8,0,0,1,44.8,44.8,44.8,44.8,0,0,1-44.8,44.8" transform="translate(1977.1 871.34)"/><path class="cls-6" d="M-1552.33,200.77h-145.93a44.8,44.8,0,0,1-44.8-44.8,44.8,44.8,0,0,1,44.8-44.8h145.93a44.8,44.8,0,0,1,44.8,44.8A44.8,44.8,0,0,1-1552.33,200.77Z" transform="translate(1977.1 871.34)"/></g><text class="cls-7" transform="translate(285.09 1040.96) scale(1 1.27)"><tspan xml:space="preserve"> Name </tspan></text><g class="cls-3"><g class="cls-8"><g class="cls-25"><path class="cls-10" d="M-1552.16,200.19h-145.93a44.8,44.8,0,0,1-44.8-44.8,44.8,44.8,0,0,1,44.8-44.8h145.93a44.8,44.8,0,0,1,44.8,44.8,44.8,44.8,0,0,1-44.8,44.8" transform="translate(1977.1 871.34)"/></g></g><path class="cls-2" d="M-1526.07,141.65c-.74,1.4-1.2,3.06-2.27,4.14-9.49,9.64-19.08,19.17-28.65,28.72a3.73,3.73,0,0,1-1.4.86q-6.07,2-12.16,4a5.49,5.49,0,0,1-1.42.07,5.27,5.27,0,0,1,0-1.43c1.28-4,2.58-8,3.93-12a4.78,4.78,0,0,1,1.12-1.76q14.1-14.16,28.24-28.28a6.35,6.35,0,0,1,7.28-1.51,8.27,8.27,0,0,1,4.89,7l.4.21m-31.68,31,25.24-25.11-7.56-7.66-25.26,25.23,7.57,7.54M-1531,146.4c2-1.54,3.58-3.37,3-6.25a7.36,7.36,0,0,0-4.94-4.75,5.63,5.63,0,0,0-5.92,3.06l7.89,7.93m-28.14,27.72-7.52-7.65-1.12,3.35c-1.14,3.42-1.15,3.44,1.55,5.81a1.63,1.63,0,0,0,1.28.37c2-.59,4-1.29,5.81-1.88m-11.22,3.7,2.85-1-1.84-2.19-1,3.17" transform="translate(1977.1 871.34)"/><path class="cls-2" d="M-1559.93,165c-.19-.68-.45-1.1-.35-1.38a3.3,3.3,0,0,1,.86-1l16.67-16.69a3,3,0,0,1,.78-.72,5.87,5.87,0,0,1,1.3-.26,3.72,3.72,0,0,1-.27,1.18,6.76,6.76,0,0,1-1,1.09l-16.24,16.25c-.45.45-.94.87-1.69,1.56" transform="translate(1977.1 871.34)"/><path class="cls-2" d="M-1556.5,168c-.29-.23-.65-.39-.63-.51a1.93,1.93,0,0,1,.39-1c1.36-1.43,2.77-2.83,4.17-4.22l13.24-13.23a4,4,0,0,1,.9-.81,1,1,0,0,1,.9,0,1.1,1.1,0,0,1,0,.92c-.1.26-.39.45-.61.67l-17.33,17.33c-.31.31-.68.56-1.05.87" transform="translate(1977.1 871.34)"/><path class="cls-11" d="M-1709.07,122.14a18,18,0,0,1-18,18,18,18,0,0,1-18-18,18,18,0,0,1,18-18,18,18,0,0,1,18,18" transform="translate(1977.1 871.34)"/></g><text class="cls-12" transform="translate(241.34 1009.06) scale(1 1.27)">-</text><g class="cls-3"><path class="cls-5" d="M-1295.74,205.2h-145.93a44.8,44.8,0,0,1-44.8-44.8,44.8,44.8,0,0,1,44.8-44.8h145.93a44.8,44.8,0,0,1,44.8,44.8,44.8,44.8,0,0,1-44.8,44.8" transform="translate(1977.1 871.34)"/><path class="cls-6" d="M-1295.74,205.2h-145.93a44.8,44.8,0,0,1-44.8-44.8,44.8,44.8,0,0,1,44.8-44.8h145.93a44.8,44.8,0,0,1,44.8,44.8A44.8,44.8,0,0,1-1295.74,205.2Z" transform="translate(1977.1 871.34)"/></g><text class="cls-7" transform="translate(541.67 1045.38) scale(1 1.27)"><tspan xml:space="preserve"> Name </tspan></text><g class="cls-3"><g class="cls-8"><g class="cls-26"><path class="cls-10" d="M-1295.58,204.62h-145.93a44.8,44.8,0,0,1-44.8-44.8,44.8,44.8,0,0,1,44.8-44.8h145.93a44.8,44.8,0,0,1,44.8,44.8,44.8,44.8,0,0,1-44.8,44.8" transform="translate(1977.1 871.34)"/></g></g><path class="cls-2" d="M-1269.49,146.07c-.74,1.4-1.2,3.06-2.27,4.14-9.49,9.64-19.08,19.17-28.66,28.72a3.75,3.75,0,0,1-1.4.86q-6.07,2-12.16,4a5.44,5.44,0,0,1-1.42.07,5.23,5.23,0,0,1,0-1.43c1.28-4,2.58-8,3.93-12a4.78,4.78,0,0,1,1.12-1.76q14.1-14.16,28.24-28.28a6.35,6.35,0,0,1,7.28-1.51,8.27,8.27,0,0,1,4.89,7l.4.21m-31.68,31,25.24-25.11-7.56-7.66-25.26,25.23,7.57,7.54m26.74-26.21c2-1.54,3.58-3.38,3-6.25a7.36,7.36,0,0,0-4.94-4.75,5.63,5.63,0,0,0-5.92,3.06l7.89,7.93m-28.14,27.72-7.52-7.65-1.12,3.35c-1.14,3.42-1.15,3.44,1.55,5.81a1.63,1.63,0,0,0,1.28.37c2-.59,4-1.29,5.81-1.88m-11.22,3.71,2.85-1-1.84-2.19-1,3.17" transform="translate(1977.1 871.34)"/><path class="cls-2" d="M-1303.35,169.44c-.19-.68-.45-1.09-.35-1.38a3.29,3.29,0,0,1,.86-1l16.67-16.69a3,3,0,0,1,.78-.72,5.93,5.93,0,0,1,1.3-.26,3.75,3.75,0,0,1-.27,1.18,6.72,6.72,0,0,1-1.05,1.09l-16.24,16.25c-.45.45-.94.87-1.69,1.56" transform="translate(1977.1 871.34)"/><path class="cls-2" d="M-1299.91,172.39c-.29-.23-.65-.39-.63-.51a1.92,1.92,0,0,1,.39-1c1.36-1.43,2.77-2.83,4.16-4.22l13.24-13.23a4,4,0,0,1,.9-.81,1,1,0,0,1,.9,0,1.1,1.1,0,0,1,0,.92c-.1.26-.39.45-.61.67l-17.33,17.33c-.31.31-.67.56-1.05.88" transform="translate(1977.1 871.34)"/><path class="cls-11" d="M-1452.49,126.57a18,18,0,0,1-18,18,18,18,0,0,1-18-18,18,18,0,0,1,18-18,18,18,0,0,1,18,18" transform="translate(1977.1 871.34)"/></g><text class="cls-12" transform="translate(497.92 1013.48) scale(1 1.27)">-</text><g class="cls-3"><path class="cls-5" d="M-1038.74,209.2h-145.93a44.8,44.8,0,0,1-44.8-44.8,44.8,44.8,0,0,1,44.8-44.8h145.93a44.8,44.8,0,0,1,44.8,44.8,44.8,44.8,0,0,1-44.8,44.8" transform="translate(1977.1 871.34)"/><path class="cls-6" d="M-1038.74,209.2h-145.93a44.8,44.8,0,0,1-44.8-44.8,44.8,44.8,0,0,1,44.8-44.8h145.93a44.8,44.8,0,0,1,44.8,44.8A44.8,44.8,0,0,1-1038.74,209.2Z" transform="translate(1977.1 871.34)"/></g><text class="cls-7" transform="translate(798.67 1049.38) scale(1 1.27)"><tspan xml:space="preserve"> Name </tspan></text><g class="cls-3"><g class="cls-8"><g class="cls-27"><path class="cls-10" d="M-1038.58,208.62h-145.93a44.8,44.8,0,0,1-44.8-44.8,44.8,44.8,0,0,1,44.8-44.8h145.93a44.8,44.8,0,0,1,44.8,44.8,44.8,44.8,0,0,1-44.8,44.8" transform="translate(1977.1 871.34)"/></g></g><path class="cls-2" d="M-1012.49,150.07c-.74,1.4-1.2,3.06-2.27,4.14-9.49,9.64-19.08,19.17-28.65,28.72a3.75,3.75,0,0,1-1.4.86q-6.07,2-12.17,4a5.44,5.44,0,0,1-1.42.07,5.23,5.23,0,0,1,0-1.43c1.28-4,2.58-8,3.93-12a4.78,4.78,0,0,1,1.12-1.76q14.1-14.16,28.24-28.28a6.35,6.35,0,0,1,7.28-1.51,8.27,8.27,0,0,1,4.89,7l.4.21m-31.68,31,25.24-25.11-7.56-7.66-25.26,25.23,7.57,7.54m26.74-26.21c2-1.54,3.58-3.38,3-6.25a7.36,7.36,0,0,0-4.94-4.75,5.63,5.63,0,0,0-5.92,3.06l7.89,7.93m-28.14,27.72-7.52-7.65-1.12,3.35c-1.14,3.42-1.16,3.44,1.55,5.81a1.63,1.63,0,0,0,1.28.37c2-.59,4-1.29,5.81-1.88m-11.22,3.71,2.85-1-1.84-2.19-1,3.17" transform="translate(1977.1 871.34)"/><path class="cls-2" d="M-1046.35,173.44c-.19-.68-.45-1.09-.35-1.38a3.29,3.29,0,0,1,.86-1l16.67-16.69a3,3,0,0,1,.77-.72,5.93,5.93,0,0,1,1.3-.26,3.75,3.75,0,0,1-.27,1.18,6.75,6.75,0,0,1-1.05,1.09l-16.24,16.25c-.45.45-.94.87-1.69,1.56" transform="translate(1977.1 871.34)"/><path class="cls-2" d="M-1042.91,176.39c-.29-.23-.65-.39-.63-.51a1.92,1.92,0,0,1,.39-1c1.36-1.43,2.77-2.83,4.16-4.22l13.24-13.23a4,4,0,0,1,.9-.81,1,1,0,0,1,.9,0,1.1,1.1,0,0,1,0,.92c-.1.26-.39.45-.61.67l-17.33,17.33c-.31.31-.67.56-1.05.88" transform="translate(1977.1 871.34)"/><path class="cls-11" d="M-1195.49,130.57a18,18,0,0,1-18,18,18,18,0,0,1-18-18,18,18,0,0,1,18-18,18,18,0,0,1,18,18" transform="translate(1977.1 871.34)"/></g><text class="cls-12" transform="translate(754.92 1017.48) scale(1 1.27)">-</text><g class="cls-3"><path class="cls-5" d="M-784.74,212.2H-930.68a44.8,44.8,0,0,1-44.8-44.8,44.8,44.8,0,0,1,44.8-44.8h145.93a44.8,44.8,0,0,1,44.8,44.8,44.8,44.8,0,0,1-44.8,44.8" transform="translate(1977.1 871.34)"/><path class="cls-6" d="M-784.74,212.2H-930.68a44.8,44.8,0,0,1-44.8-44.8,44.8,44.8,0,0,1,44.8-44.8h145.93a44.8,44.8,0,0,1,44.8,44.8A44.8,44.8,0,0,1-784.74,212.2Z" transform="translate(1977.1 871.34)"/></g><text class="cls-7" transform="translate(1052.67 1052.38) scale(1 1.27)"><tspan xml:space="preserve"> Name </tspan></text><g class="cls-3"><g class="cls-8"><g class="cls-28"><path class="cls-10" d="M-784.58,211.62H-930.51a44.8,44.8,0,0,1-44.8-44.8,44.8,44.8,0,0,1,44.8-44.8h145.93a44.8,44.8,0,0,1,44.8,44.8,44.8,44.8,0,0,1-44.8,44.8" transform="translate(1977.1 871.34)"/></g></g><path class="cls-2" d="M-758.49,153.07c-.74,1.4-1.2,3.06-2.27,4.14-9.49,9.64-19.08,19.17-28.66,28.72a3.75,3.75,0,0,1-1.4.86q-6.07,2-12.16,4a5.44,5.44,0,0,1-1.42.07,5.23,5.23,0,0,1,0-1.43c1.28-4,2.58-8,3.93-12a4.78,4.78,0,0,1,1.12-1.76q14.1-14.16,28.24-28.28a6.35,6.35,0,0,1,7.28-1.51,8.27,8.27,0,0,1,4.89,7l.4.21m-31.68,31,25.24-25.11-7.56-7.66-25.26,25.23,7.57,7.54m26.74-26.21c2-1.54,3.58-3.38,3-6.25a7.36,7.36,0,0,0-4.94-4.75,5.63,5.63,0,0,0-5.92,3.06l7.89,7.93m-28.14,27.72-7.52-7.65-1.12,3.35c-1.14,3.42-1.16,3.44,1.55,5.81a1.63,1.63,0,0,0,1.28.37c2-.59,4-1.29,5.81-1.88m-11.22,3.71,2.85-1-1.84-2.19-1,3.17" transform="translate(1977.1 871.34)"/><path class="cls-2" d="M-792.35,176.44c-.19-.68-.45-1.09-.35-1.38a3.29,3.29,0,0,1,.86-1l16.67-16.69a3,3,0,0,1,.77-.72,5.93,5.93,0,0,1,1.3-.26,3.75,3.75,0,0,1-.27,1.18,6.75,6.75,0,0,1-1.05,1.09l-16.24,16.25c-.45.45-.94.87-1.69,1.56" transform="translate(1977.1 871.34)"/><path class="cls-2" d="M-788.91,179.39c-.29-.23-.65-.39-.63-.51a1.92,1.92,0,0,1,.39-1c1.36-1.43,2.77-2.83,4.17-4.22l13.24-13.23a4,4,0,0,1,.9-.81,1,1,0,0,1,.91,0,1.1,1.1,0,0,1,0,.92c-.1.26-.39.45-.61.67l-17.33,17.33c-.31.31-.67.56-1.05.88" transform="translate(1977.1 871.34)"/><path class="cls-11" d="M-941.49,133.57a18,18,0,0,1-18,18,18,18,0,0,1-18-18,18,18,0,0,1,18-18,18,18,0,0,1,18,18" transform="translate(1977.1 871.34)"/></g><text class="cls-12" transform="translate(1008.92 1020.48) scale(1 1.27)">-</text><g class="cls-3"><path class="cls-5" d="M-1548.83,312.64h-145.93a44.8,44.8,0,0,1-44.8-44.8,44.8,44.8,0,0,1,44.8-44.8h145.93a44.8,44.8,0,0,1,44.8,44.8,44.8,44.8,0,0,1-44.8,44.8" transform="translate(1977.1 871.34)"/><path class="cls-6" d="M-1548.83,312.64h-145.93a44.8,44.8,0,0,1-44.8-44.8,44.8,44.8,0,0,1,44.8-44.8h145.93a44.8,44.8,0,0,1,44.8,44.8A44.8,44.8,0,0,1-1548.83,312.64Z" transform="translate(1977.1 871.34)"/></g><text class="cls-7" transform="translate(288.59 1152.82) scale(1 1.27)"><tspan xml:space="preserve"> Name </tspan></text><g class="cls-3"><g class="cls-8"><g class="cls-29"><path class="cls-10" d="M-1548.66,312.06h-145.93a44.8,44.8,0,0,1-44.8-44.8,44.8,44.8,0,0,1,44.8-44.8h145.93a44.8,44.8,0,0,1,44.8,44.8,44.8,44.8,0,0,1-44.8,44.8" transform="translate(1977.1 871.34)"/></g></g><path class="cls-2" d="M-1522.58,253.51c-.74,1.4-1.2,3.07-2.27,4.14-9.49,9.64-19.08,19.17-28.66,28.72a3.74,3.74,0,0,1-1.4.86q-6.07,2-12.16,4a5.5,5.5,0,0,1-1.42.07,5.27,5.27,0,0,1,0-1.43c1.28-4,2.58-8,3.93-12a4.78,4.78,0,0,1,1.12-1.76q14.1-14.16,28.24-28.28a6.35,6.35,0,0,1,7.28-1.51,8.27,8.27,0,0,1,4.89,7l.4.21m-31.68,31,25.24-25.11-7.56-7.66-25.26,25.22,7.57,7.54m26.74-26.21c2-1.54,3.58-3.38,3-6.25a7.36,7.36,0,0,0-4.94-4.75,5.63,5.63,0,0,0-5.91,3.06l7.89,7.93M-1555.65,286l-7.52-7.65-1.12,3.35c-1.14,3.42-1.15,3.44,1.55,5.81a1.63,1.63,0,0,0,1.28.37c2-.59,4-1.29,5.81-1.88m-11.22,3.71,2.85-1-1.84-2.19-1,3.17" transform="translate(1977.1 871.34)"/><path class="cls-2" d="M-1556.44,276.89c-.19-.68-.45-1.1-.35-1.38a3.28,3.28,0,0,1,.86-1l16.67-16.69a3,3,0,0,1,.78-.72,5.86,5.86,0,0,1,1.3-.26,3.73,3.73,0,0,1-.27,1.18,6.79,6.79,0,0,1-1.05,1.09l-16.24,16.25c-.45.45-.94.87-1.69,1.56" transform="translate(1977.1 871.34)"/><path class="cls-2" d="M-1553,279.83c-.29-.22-.65-.39-.63-.51a1.93,1.93,0,0,1,.39-1c1.36-1.43,2.77-2.83,4.17-4.22l13.24-13.23a4,4,0,0,1,.9-.81,1,1,0,0,1,.9,0,1.1,1.1,0,0,1,0,.92c-.1.26-.39.45-.61.67L-1551.94,279c-.31.31-.68.56-1.05.87" transform="translate(1977.1 871.34)"/><path class="cls-11" d="M-1705.58,234a18,18,0,0,1-18,18,18,18,0,0,1-18-18,18,18,0,0,1,18-18,18,18,0,0,1,18,18" transform="translate(1977.1 871.34)"/></g><text class="cls-12" transform="translate(244.84 1120.92) scale(1 1.27)">-</text><g class="cls-3"><path class="cls-5" d="M-1292.25,317.06h-145.93a44.8,44.8,0,0,1-44.8-44.8,44.8,44.8,0,0,1,44.8-44.8h145.93a44.8,44.8,0,0,1,44.8,44.8,44.8,44.8,0,0,1-44.8,44.8" transform="translate(1977.1 871.34)"/><path class="cls-6" d="M-1292.25,317.06h-145.93a44.8,44.8,0,0,1-44.8-44.8,44.8,44.8,0,0,1,44.8-44.8h145.93a44.8,44.8,0,0,1,44.8,44.8A44.8,44.8,0,0,1-1292.25,317.06Z" transform="translate(1977.1 871.34)"/></g><text class="cls-7" transform="translate(545.17 1157.25) scale(1 1.27)"><tspan xml:space="preserve"> Name </tspan></text><g class="cls-3"><g class="cls-8"><g class="cls-30"><path class="cls-10" d="M-1292.08,316.48H-1438a44.8,44.8,0,0,1-44.8-44.8,44.8,44.8,0,0,1,44.8-44.8h145.93a44.8,44.8,0,0,1,44.8,44.8,44.8,44.8,0,0,1-44.8,44.8" transform="translate(1977.1 871.34)"/></g></g><path class="cls-2" d="M-1266,257.94c-.74,1.4-1.2,3.06-2.27,4.14-9.49,9.64-19.08,19.17-28.66,28.72a3.72,3.72,0,0,1-1.4.86q-6.07,2-12.16,4a5.49,5.49,0,0,1-1.42.07,5.23,5.23,0,0,1,0-1.43c1.28-4,2.58-8,3.93-12a4.77,4.77,0,0,1,1.12-1.76q14.1-14.16,28.24-28.28a6.35,6.35,0,0,1,7.28-1.51,8.27,8.27,0,0,1,4.89,7l.4.21m-31.68,31,25.24-25.11-7.56-7.66-25.26,25.23,7.57,7.54m26.74-26.21c2-1.54,3.58-3.37,3-6.25a7.36,7.36,0,0,0-4.94-4.75,5.63,5.63,0,0,0-5.92,3.06l7.89,7.93m-28.14,27.72-7.52-7.65-1.12,3.35c-1.14,3.42-1.15,3.44,1.55,5.81a1.63,1.63,0,0,0,1.28.37c2-.59,4-1.29,5.81-1.88m-11.22,3.7,2.85-1-1.84-2.19-1,3.17" transform="translate(1977.1 871.34)"/><path class="cls-2" d="M-1299.85,281.31c-.19-.68-.45-1.09-.35-1.38a3.29,3.29,0,0,1,.86-1l16.67-16.69a3,3,0,0,1,.77-.72,5.87,5.87,0,0,1,1.3-.26,3.74,3.74,0,0,1-.27,1.18,6.84,6.84,0,0,1-1.05,1.09l-16.24,16.25c-.45.45-.94.87-1.69,1.56" transform="translate(1977.1 871.34)"/><path class="cls-2" d="M-1296.41,284.26c-.29-.23-.65-.39-.63-.51a1.93,1.93,0,0,1,.39-1c1.36-1.43,2.77-2.83,4.16-4.22l13.24-13.23a4,4,0,0,1,.9-.81,1,1,0,0,1,.9,0,1.1,1.1,0,0,1,0,.92c-.09.26-.39.45-.61.67l-17.33,17.33c-.31.31-.67.56-1.05.87" transform="translate(1977.1 871.34)"/><path class="cls-11" d="M-1449,238.44a18,18,0,0,1-18,18,18,18,0,0,1-18-18,18,18,0,0,1,18-18,18,18,0,0,1,18,18" transform="translate(1977.1 871.34)"/></g><text class="cls-12" transform="translate(501.42 1125.35) scale(1 1.27)">-</text><g class="cls-3"><path class="cls-5" d="M-1035.25,321.06h-145.93a44.8,44.8,0,0,1-44.8-44.8,44.8,44.8,0,0,1,44.8-44.8h145.93a44.8,44.8,0,0,1,44.8,44.8,44.8,44.8,0,0,1-44.8,44.8" transform="translate(1977.1 871.34)"/><path class="cls-6" d="M-1035.25,321.06h-145.93a44.8,44.8,0,0,1-44.8-44.8,44.8,44.8,0,0,1,44.8-44.8h145.93a44.8,44.8,0,0,1,44.8,44.8A44.8,44.8,0,0,1-1035.25,321.06Z" transform="translate(1977.1 871.34)"/></g><text class="cls-7" transform="translate(802.17 1161.25) scale(1 1.27)"><tspan xml:space="preserve"> Name </tspan></text><g class="cls-3"><g class="cls-8"><g class="cls-31"><path class="cls-10" d="M-1035.08,320.48H-1181a44.8,44.8,0,0,1-44.8-44.8,44.8,44.8,0,0,1,44.8-44.8h145.93a44.8,44.8,0,0,1,44.8,44.8,44.8,44.8,0,0,1-44.8,44.8" transform="translate(1977.1 871.34)"/></g></g><path class="cls-2" d="M-1009,261.94c-.74,1.4-1.2,3.06-2.27,4.14-9.49,9.64-19.08,19.17-28.66,28.72a3.72,3.72,0,0,1-1.4.86q-6.07,2-12.16,4a5.49,5.49,0,0,1-1.42.07,5.23,5.23,0,0,1,0-1.43c1.28-4,2.58-8,3.93-12a4.77,4.77,0,0,1,1.12-1.76q14.1-14.16,28.24-28.28a6.35,6.35,0,0,1,7.28-1.51,8.27,8.27,0,0,1,4.89,7l.4.21m-31.68,31,25.24-25.11-7.56-7.66-25.26,25.23,7.57,7.54m26.74-26.21c2-1.54,3.58-3.37,3-6.25a7.36,7.36,0,0,0-4.94-4.75,5.63,5.63,0,0,0-5.92,3.06l7.89,7.93m-28.14,27.72-7.52-7.65-1.12,3.35c-1.14,3.42-1.16,3.44,1.55,5.81a1.63,1.63,0,0,0,1.28.37c2-.59,4-1.29,5.81-1.88m-11.22,3.7,2.85-1-1.84-2.19-1,3.17" transform="translate(1977.1 871.34)"/><path class="cls-2" d="M-1042.85,285.31c-.19-.68-.45-1.09-.35-1.38a3.29,3.29,0,0,1,.86-1l16.67-16.69a3,3,0,0,1,.77-.72,5.87,5.87,0,0,1,1.3-.26,3.74,3.74,0,0,1-.27,1.18,6.84,6.84,0,0,1-1.05,1.09l-16.24,16.25c-.45.45-.94.87-1.69,1.56" transform="translate(1977.1 871.34)"/><path class="cls-2" d="M-1039.41,288.26c-.29-.23-.65-.39-.63-.51a1.93,1.93,0,0,1,.39-1c1.36-1.43,2.77-2.83,4.16-4.22l13.24-13.23a4,4,0,0,1,.9-.81,1,1,0,0,1,.9,0,1.1,1.1,0,0,1,0,.92c-.09.26-.39.45-.61.67l-17.33,17.33c-.31.31-.67.56-1.05.87" transform="translate(1977.1 871.34)"/><path class="cls-11" d="M-1192,242.44a18,18,0,0,1-18,18,18,18,0,0,1-18-18,18,18,0,0,1,18-18,18,18,0,0,1,18,18" transform="translate(1977.1 871.34)"/></g><text class="cls-12" transform="translate(758.42 1129.35) scale(1 1.27)">-</text><g class="cls-3"><path class="cls-5" d="M-781.25,324.06H-927.18a44.8,44.8,0,0,1-44.8-44.8,44.8,44.8,0,0,1,44.8-44.8h145.93a44.8,44.8,0,0,1,44.8,44.8,44.8,44.8,0,0,1-44.8,44.8" transform="translate(1977.1 871.34)"/><path class="cls-6" d="M-781.25,324.06H-927.18a44.8,44.8,0,0,1-44.8-44.8,44.8,44.8,0,0,1,44.8-44.8h145.93a44.8,44.8,0,0,1,44.8,44.8A44.8,44.8,0,0,1-781.25,324.06Z" transform="translate(1977.1 871.34)"/></g><text class="cls-7" transform="translate(1056.17 1164.25) scale(1 1.27)"><tspan xml:space="preserve"> Name </tspan></text><g class="cls-3"><g class="cls-8"><g class="cls-32"><path class="cls-10" d="M-781.08,323.48H-927a44.8,44.8,0,0,1-44.8-44.8,44.8,44.8,0,0,1,44.8-44.8h145.93a44.8,44.8,0,0,1,44.8,44.8,44.8,44.8,0,0,1-44.8,44.8" transform="translate(1977.1 871.34)"/></g></g><path class="cls-2" d="M-755,264.94c-.74,1.4-1.2,3.06-2.27,4.14-9.49,9.64-19.08,19.17-28.66,28.72a3.72,3.72,0,0,1-1.4.86q-6.07,2-12.16,4a5.49,5.49,0,0,1-1.42.07,5.23,5.23,0,0,1,0-1.43c1.28-4,2.58-8,3.93-12a4.77,4.77,0,0,1,1.12-1.76q14.1-14.16,28.24-28.28a6.35,6.35,0,0,1,7.28-1.51,8.27,8.27,0,0,1,4.89,7l.4.21m-31.68,31,25.24-25.11-7.56-7.66-25.26,25.23,7.57,7.54m26.74-26.21c2-1.54,3.58-3.37,3-6.25a7.36,7.36,0,0,0-4.94-4.75,5.63,5.63,0,0,0-5.92,3.06l7.89,7.93m-28.14,27.72-7.52-7.65-1.12,3.35c-1.14,3.42-1.16,3.44,1.55,5.81a1.63,1.63,0,0,0,1.28.37c2-.59,4-1.29,5.81-1.88m-11.22,3.7,2.85-1-1.84-2.19-1,3.17" transform="translate(1977.1 871.34)"/><path class="cls-2" d="M-788.85,288.31c-.19-.68-.45-1.09-.35-1.38a3.29,3.29,0,0,1,.86-1l16.67-16.69a3,3,0,0,1,.77-.72,5.87,5.87,0,0,1,1.3-.26,3.74,3.74,0,0,1-.27,1.18,6.84,6.84,0,0,1-1.05,1.09l-16.24,16.25c-.45.45-.94.87-1.69,1.56" transform="translate(1977.1 871.34)"/><path class="cls-2" d="M-785.41,291.26c-.29-.23-.65-.39-.63-.51a1.93,1.93,0,0,1,.39-1c1.36-1.43,2.77-2.83,4.17-4.22l13.24-13.23a4,4,0,0,1,.9-.81,1,1,0,0,1,.91,0,1.1,1.1,0,0,1,0,.92c-.09.26-.39.45-.61.67l-17.33,17.33c-.31.31-.67.56-1.05.87" transform="translate(1977.1 871.34)"/><path class="cls-11" d="M-938,245.44a18,18,0,0,1-18,18,18,18,0,0,1-18-18,18,18,0,0,1,18-18,18,18,0,0,1,18,18" transform="translate(1977.1 871.34)"/></g><text class="cls-12" transform="translate(1012.42 1132.35) scale(1 1.27)">-</text><g class="cls-3"><path class="cls-5" d="M-1548,450.35H-1694a44.8,44.8,0,0,1-44.8-44.8,44.8,44.8,0,0,1,44.8-44.8H-1548a44.8,44.8,0,0,1,44.8,44.8,44.8,44.8,0,0,1-44.8,44.8" transform="translate(1977.1 871.34)"/><path class="cls-6" d="M-1548,450.35H-1694a44.8,44.8,0,0,1-44.8-44.8,44.8,44.8,0,0,1,44.8-44.8H-1548a44.8,44.8,0,0,1,44.8,44.8A44.8,44.8,0,0,1-1548,450.35Z" transform="translate(1977.1 871.34)"/></g><text class="cls-7" transform="translate(289.39 1290.54) scale(1 1.27)"><tspan xml:space="preserve"> Name </tspan></text><g class="cls-3"><g class="cls-8"><g class="cls-33"><path class="cls-10" d="M-1547.86,449.77h-145.93a44.8,44.8,0,0,1-44.8-44.8,44.8,44.8,0,0,1,44.8-44.8h145.93a44.8,44.8,0,0,1,44.8,44.8,44.8,44.8,0,0,1-44.8,44.8" transform="translate(1977.1 871.34)"/></g></g><path class="cls-2" d="M-1521.77,391.23c-.74,1.4-1.2,3.06-2.27,4.14-9.49,9.64-19.08,19.17-28.65,28.72a3.74,3.74,0,0,1-1.4.86q-6.07,2-12.16,4a5.45,5.45,0,0,1-1.42.07,5.23,5.23,0,0,1,0-1.43c1.28-4,2.58-8,3.93-12a4.78,4.78,0,0,1,1.12-1.76q14.1-14.16,28.24-28.28a6.35,6.35,0,0,1,7.28-1.51,8.27,8.27,0,0,1,4.89,7l.4.21m-31.68,31,25.24-25.11-7.56-7.66L-1561,414.65l7.57,7.54m26.74-26.21c2-1.54,3.58-3.38,3-6.25a7.36,7.36,0,0,0-4.94-4.75,5.63,5.63,0,0,0-5.92,3.06l7.89,7.93m-28.14,27.72-7.52-7.65-1.12,3.35c-1.14,3.42-1.15,3.44,1.55,5.81a1.63,1.63,0,0,0,1.28.37c2-.59,4-1.29,5.81-1.88m-11.22,3.71,2.85-1-1.84-2.19-1,3.17" transform="translate(1977.1 871.34)"/><path class="cls-2" d="M-1555.64,414.6c-.19-.68-.45-1.09-.35-1.38a3.29,3.29,0,0,1,.86-1l16.67-16.69a3,3,0,0,1,.78-.72,5.92,5.92,0,0,1,1.3-.26,3.72,3.72,0,0,1-.27,1.18,6.75,6.75,0,0,1-1.05,1.09L-1553.94,413c-.45.45-.94.87-1.69,1.56" transform="translate(1977.1 871.34)"/><path class="cls-2" d="M-1552.2,417.54c-.29-.23-.65-.39-.63-.51a1.92,1.92,0,0,1,.39-1c1.36-1.43,2.77-2.83,4.17-4.22l13.24-13.23a4,4,0,0,1,.9-.81,1,1,0,0,1,.9,0,1.1,1.1,0,0,1,0,.92c-.1.26-.39.45-.61.67l-17.33,17.33c-.31.31-.68.56-1.05.88" transform="translate(1977.1 871.34)"/><path class="cls-11" d="M-1704.77,371.72a18,18,0,0,1-18,18,18,18,0,0,1-18-18,18,18,0,0,1,18-18,18,18,0,0,1,18,18" transform="translate(1977.1 871.34)"/></g><text class="cls-12" transform="translate(245.64 1258.64) scale(1 1.27)">-</text><g class="cls-3"><path class="cls-5" d="M-1291.44,454.78h-145.93a44.8,44.8,0,0,1-44.8-44.8,44.8,44.8,0,0,1,44.8-44.8h145.93a44.8,44.8,0,0,1,44.8,44.8,44.8,44.8,0,0,1-44.8,44.8" transform="translate(1977.1 871.34)"/><path class="cls-6" d="M-1291.44,454.78h-145.93a44.8,44.8,0,0,1-44.8-44.8,44.8,44.8,0,0,1,44.8-44.8h145.93a44.8,44.8,0,0,1,44.8,44.8A44.8,44.8,0,0,1-1291.44,454.78Z" transform="translate(1977.1 871.34)"/></g><text class="cls-7" transform="translate(545.97 1294.96) scale(1 1.27)"><tspan xml:space="preserve"> Name </tspan></text><g class="cls-3"><g class="cls-8"><g class="cls-34"><path class="cls-10" d="M-1291.28,454.2h-145.93a44.8,44.8,0,0,1-44.8-44.8,44.8,44.8,0,0,1,44.8-44.8h145.93a44.8,44.8,0,0,1,44.8,44.8,44.8,44.8,0,0,1-44.8,44.8" transform="translate(1977.1 871.34)"/></g></g><path class="cls-2" d="M-1265.19,395.65c-.74,1.4-1.2,3.07-2.27,4.14-9.49,9.64-19.08,19.17-28.66,28.72a3.74,3.74,0,0,1-1.4.86q-6.07,2-12.16,4a5.45,5.45,0,0,1-1.42.07,5.19,5.19,0,0,1,0-1.43c1.28-4,2.58-8,3.93-12a4.78,4.78,0,0,1,1.12-1.76q14.1-14.16,28.24-28.28a6.35,6.35,0,0,1,7.28-1.51,8.27,8.27,0,0,1,4.89,7l.4.21m-31.68,31,25.24-25.11-7.56-7.66-25.26,25.22,7.57,7.54m26.74-26.21c2-1.54,3.58-3.38,3-6.25a7.36,7.36,0,0,0-4.94-4.75,5.63,5.63,0,0,0-5.92,3.06l7.89,7.93m-28.14,27.72-7.52-7.65-1.12,3.35c-1.14,3.42-1.15,3.44,1.55,5.81a1.63,1.63,0,0,0,1.28.37c2-.59,4-1.29,5.81-1.88m-11.22,3.71,2.85-1-1.84-2.19-1,3.17" transform="translate(1977.1 871.34)"/><path class="cls-2" d="M-1299.05,419c-.19-.68-.45-1.1-.35-1.38a3.28,3.28,0,0,1,.86-1l16.67-16.69a3,3,0,0,1,.78-.72,5.87,5.87,0,0,1,1.3-.26,3.73,3.73,0,0,1-.27,1.18,6.79,6.79,0,0,1-1,1.09l-16.24,16.25c-.45.45-.94.87-1.69,1.56" transform="translate(1977.1 871.34)"/><path class="cls-2" d="M-1295.61,422c-.29-.22-.65-.39-.63-.51a1.93,1.93,0,0,1,.39-1c1.36-1.43,2.77-2.83,4.16-4.22l13.24-13.23a4,4,0,0,1,.9-.81,1,1,0,0,1,.9,0,1.1,1.1,0,0,1,0,.92c-.09.26-.39.45-.61.67l-17.33,17.33c-.31.31-.67.56-1.05.87" transform="translate(1977.1 871.34)"/><path class="cls-11" d="M-1448.19,376.15a18,18,0,0,1-18,18,18,18,0,0,1-18-18,18,18,0,0,1,18-18,18,18,0,0,1,18,18" transform="translate(1977.1 871.34)"/></g><text class="cls-12" transform="translate(502.22 1263.06) scale(1 1.27)">-</text><g class="cls-3"><path class="cls-5" d="M-1034.44,458.78h-145.93a44.8,44.8,0,0,1-44.8-44.8,44.8,44.8,0,0,1,44.8-44.8h145.93a44.8,44.8,0,0,1,44.8,44.8,44.8,44.8,0,0,1-44.8,44.8" transform="translate(1977.1 871.34)"/><path class="cls-6" d="M-1034.44,458.78h-145.93a44.8,44.8,0,0,1-44.8-44.8,44.8,44.8,0,0,1,44.8-44.8h145.93a44.8,44.8,0,0,1,44.8,44.8A44.8,44.8,0,0,1-1034.44,458.78Z" transform="translate(1977.1 871.34)"/></g><text class="cls-7" transform="translate(802.97 1298.96) scale(1 1.27)"><tspan xml:space="preserve"> Name </tspan></text><g class="cls-3"><g class="cls-8"><g class="cls-35"><path class="cls-10" d="M-1034.28,458.2h-145.93a44.8,44.8,0,0,1-44.8-44.8,44.8,44.8,0,0,1,44.8-44.8h145.93a44.8,44.8,0,0,1,44.8,44.8,44.8,44.8,0,0,1-44.8,44.8" transform="translate(1977.1 871.34)"/></g></g><path class="cls-2" d="M-1008.19,399.65c-.74,1.4-1.2,3.07-2.27,4.14-9.49,9.64-19.08,19.17-28.66,28.72a3.74,3.74,0,0,1-1.4.86q-6.07,2-12.16,4a5.45,5.45,0,0,1-1.42.07,5.19,5.19,0,0,1,0-1.43c1.28-4,2.58-8,3.93-12a4.78,4.78,0,0,1,1.12-1.76q14.1-14.16,28.24-28.28a6.35,6.35,0,0,1,7.28-1.51,8.27,8.27,0,0,1,4.89,7l.4.21m-31.68,31,25.24-25.11-7.56-7.66-25.26,25.22,7.57,7.54m26.74-26.21c2-1.54,3.58-3.38,3-6.25a7.36,7.36,0,0,0-4.94-4.75,5.63,5.63,0,0,0-5.92,3.06l7.89,7.93m-28.14,27.72-7.52-7.65-1.12,3.35c-1.14,3.42-1.16,3.44,1.55,5.81a1.63,1.63,0,0,0,1.28.37c2-.59,4-1.29,5.81-1.88m-11.22,3.71,2.85-1-1.84-2.19-1,3.17" transform="translate(1977.1 871.34)"/><path class="cls-2" d="M-1042.05,423c-.19-.68-.45-1.1-.35-1.38a3.28,3.28,0,0,1,.86-1l16.67-16.69a3,3,0,0,1,.78-.72,5.87,5.87,0,0,1,1.3-.26,3.73,3.73,0,0,1-.27,1.18,6.79,6.79,0,0,1-1,1.09l-16.24,16.25c-.45.45-.94.87-1.69,1.56" transform="translate(1977.1 871.34)"/><path class="cls-2" d="M-1038.61,426c-.29-.22-.65-.39-.63-.51a1.93,1.93,0,0,1,.39-1c1.36-1.43,2.77-2.83,4.16-4.22l13.24-13.23a4,4,0,0,1,.9-.81,1,1,0,0,1,.9,0,1.1,1.1,0,0,1,0,.92c-.09.26-.39.45-.61.67l-17.33,17.33c-.31.31-.67.56-1.05.87" transform="translate(1977.1 871.34)"/><path class="cls-11" d="M-1191.19,380.15a18,18,0,0,1-18,18,18,18,0,0,1-18-18,18,18,0,0,1,18-18,18,18,0,0,1,18,18" transform="translate(1977.1 871.34)"/></g><text class="cls-12" transform="translate(759.22 1267.06) scale(1 1.27)">-</text><g class="cls-3"><path class="cls-5" d="M-780.44,461.78H-926.38a44.8,44.8,0,0,1-44.8-44.8,44.8,44.8,0,0,1,44.8-44.8h145.93a44.8,44.8,0,0,1,44.8,44.8,44.8,44.8,0,0,1-44.8,44.8" transform="translate(1977.1 871.34)"/><path class="cls-6" d="M-780.44,461.78H-926.38a44.8,44.8,0,0,1-44.8-44.8,44.8,44.8,0,0,1,44.8-44.8h145.93a44.8,44.8,0,0,1,44.8,44.8A44.8,44.8,0,0,1-780.44,461.78Z" transform="translate(1977.1 871.34)"/></g><text class="cls-7" transform="translate(1056.97 1301.96) scale(1 1.27)"><tspan xml:space="preserve"> Name </tspan></text><g class="cls-3"><g class="cls-8"><g class="cls-36"><path class="cls-10" d="M-780.28,461.2H-926.21A44.8,44.8,0,0,1-971,416.4a44.8,44.8,0,0,1,44.8-44.8h145.93a44.8,44.8,0,0,1,44.8,44.8,44.8,44.8,0,0,1-44.8,44.8" transform="translate(1977.1 871.34)"/></g></g><path class="cls-2" d="M-754.19,402.65c-.74,1.4-1.2,3.07-2.27,4.14-9.49,9.64-19.08,19.17-28.66,28.72a3.74,3.74,0,0,1-1.4.86q-6.07,2-12.16,4a5.45,5.45,0,0,1-1.42.07,5.19,5.19,0,0,1,0-1.43c1.28-4,2.58-8,3.93-12a4.78,4.78,0,0,1,1.12-1.76q14.1-14.16,28.24-28.28a6.35,6.35,0,0,1,7.28-1.51,8.27,8.27,0,0,1,4.89,7l.4.21m-31.68,31,25.24-25.11-7.56-7.66-25.26,25.22,7.57,7.54m26.74-26.21c2-1.54,3.58-3.38,3-6.25a7.36,7.36,0,0,0-4.94-4.75,5.63,5.63,0,0,0-5.92,3.06l7.89,7.93m-28.14,27.72-7.52-7.65-1.12,3.35c-1.14,3.42-1.16,3.44,1.55,5.81a1.63,1.63,0,0,0,1.28.37c2-.59,4-1.29,5.81-1.88m-11.22,3.71,2.85-1-1.84-2.19-1,3.17" transform="translate(1977.1 871.34)"/><path class="cls-2" d="M-788.05,426c-.19-.68-.45-1.1-.35-1.38a3.28,3.28,0,0,1,.86-1l16.67-16.69a3,3,0,0,1,.78-.72,5.87,5.87,0,0,1,1.3-.26,3.73,3.73,0,0,1-.27,1.18,6.79,6.79,0,0,1-1,1.09l-16.24,16.25c-.45.45-.94.87-1.69,1.56" transform="translate(1977.1 871.34)"/><path class="cls-2" d="M-784.61,429c-.29-.22-.65-.39-.63-.51a1.93,1.93,0,0,1,.39-1c1.36-1.43,2.77-2.83,4.17-4.22L-767.45,410a4,4,0,0,1,.9-.81,1,1,0,0,1,.91,0,1.1,1.1,0,0,1,0,.92c-.09.26-.39.45-.61.67l-17.33,17.33c-.31.31-.67.56-1.05.87" transform="translate(1977.1 871.34)"/><path class="cls-11" d="M-937.19,383.15a18,18,0,0,1-18,18,18,18,0,0,1-18-18,18,18,0,0,1,18-18,18,18,0,0,1,18,18" transform="translate(1977.1 871.34)"/></g><text class="cls-12" transform="translate(1013.22 1270.06) scale(1 1.27)">-</text><g class="cls-3"><path class="cls-5" d="M-1549.43,565.47h-145.93a44.8,44.8,0,0,1-44.8-44.8,44.8,44.8,0,0,1,44.8-44.8h145.93a44.8,44.8,0,0,1,44.8,44.8,44.8,44.8,0,0,1-44.8,44.8" transform="translate(1977.1 871.34)"/><path class="cls-6" d="M-1549.43,565.47h-145.93a44.8,44.8,0,0,1-44.8-44.8,44.8,44.8,0,0,1,44.8-44.8h145.93a44.8,44.8,0,0,1,44.8,44.8A44.8,44.8,0,0,1-1549.43,565.47Z" transform="translate(1977.1 871.34)"/></g><text class="cls-7" transform="translate(287.99 1405.66) scale(1 1.27)"><tspan xml:space="preserve"> Name </tspan></text><g class="cls-3"><g class="cls-8"><g class="cls-37"><path class="cls-10" d="M-1549.26,564.89h-145.93a44.8,44.8,0,0,1-44.8-44.8,44.8,44.8,0,0,1,44.8-44.8h145.93a44.8,44.8,0,0,1,44.8,44.8,44.8,44.8,0,0,1-44.8,44.8" transform="translate(1977.1 871.34)"/></g></g><path class="cls-2" d="M-1523.18,506.35c-.74,1.4-1.2,3.06-2.27,4.14-9.49,9.64-19.08,19.17-28.65,28.72a3.72,3.72,0,0,1-1.4.86q-6.07,2-12.16,4a5.49,5.49,0,0,1-1.42.07,5.19,5.19,0,0,1,0-1.43c1.28-4,2.58-8,3.93-12a4.77,4.77,0,0,1,1.12-1.76q14.1-14.16,28.24-28.28a6.36,6.36,0,0,1,7.28-1.51,8.27,8.27,0,0,1,4.89,7l.4.21m-31.68,31,25.24-25.11-7.56-7.66-25.26,25.23,7.57,7.54m26.74-26.21c2-1.54,3.58-3.37,3-6.25a7.36,7.36,0,0,0-4.94-4.75,5.63,5.63,0,0,0-5.92,3.06l7.89,7.93m-28.14,27.72-7.52-7.65-1.12,3.35c-1.14,3.42-1.15,3.44,1.55,5.81a1.63,1.63,0,0,0,1.28.37c2-.59,4-1.29,5.81-1.88m-11.22,3.7,2.85-1-1.84-2.19-1,3.17" transform="translate(1977.1 871.34)"/><path class="cls-2" d="M-1557,529.72c-.19-.68-.45-1.1-.35-1.38a3.29,3.29,0,0,1,.86-1l16.67-16.69a3,3,0,0,1,.78-.72,5.87,5.87,0,0,1,1.3-.26,3.72,3.72,0,0,1-.27,1.18,6.84,6.84,0,0,1-1,1.09l-16.24,16.25c-.45.45-.94.87-1.69,1.56" transform="translate(1977.1 871.34)"/><path class="cls-2" d="M-1553.6,532.67c-.29-.23-.65-.39-.63-.51a1.93,1.93,0,0,1,.39-1c1.36-1.43,2.77-2.83,4.16-4.22l13.24-13.23a4,4,0,0,1,.9-.81,1,1,0,0,1,.9,0,1.1,1.1,0,0,1,0,.92c-.1.26-.39.45-.61.67l-17.33,17.33c-.31.31-.67.56-1.05.87" transform="translate(1977.1 871.34)"/><path class="cls-11" d="M-1706.18,486.85a18,18,0,0,1-18,18,18,18,0,0,1-18-18,18,18,0,0,1,18-18,18,18,0,0,1,18,18" transform="translate(1977.1 871.34)"/></g><text class="cls-12" transform="translate(244.24 1373.76) scale(1 1.27)">-</text><g class="cls-3"><path class="cls-5" d="M-1292.85,569.9h-145.93a44.8,44.8,0,0,1-44.8-44.8,44.8,44.8,0,0,1,44.8-44.8h145.93a44.8,44.8,0,0,1,44.8,44.8,44.8,44.8,0,0,1-44.8,44.8" transform="translate(1977.1 871.34)"/><path class="cls-6" d="M-1292.85,569.9h-145.93a44.8,44.8,0,0,1-44.8-44.8,44.8,44.8,0,0,1,44.8-44.8h145.93a44.8,44.8,0,0,1,44.8,44.8A44.8,44.8,0,0,1-1292.85,569.9Z" transform="translate(1977.1 871.34)"/></g><text class="cls-7" transform="translate(544.57 1410.09) scale(1 1.27)"><tspan xml:space="preserve"> Name </tspan></text><g class="cls-3"><g class="cls-8"><g class="cls-38"><path class="cls-10" d="M-1292.68,569.32h-145.93a44.8,44.8,0,0,1-44.8-44.8,44.8,44.8,0,0,1,44.8-44.8h145.93a44.8,44.8,0,0,1,44.8,44.8,44.8,44.8,0,0,1-44.8,44.8" transform="translate(1977.1 871.34)"/></g></g><path class="cls-2" d="M-1266.59,510.78c-.74,1.4-1.2,3.06-2.27,4.14-9.49,9.64-19.08,19.17-28.66,28.72a3.75,3.75,0,0,1-1.4.86q-6.07,2-12.16,4a5.45,5.45,0,0,1-1.42.07,5.27,5.27,0,0,1,0-1.43c1.28-4,2.58-8,3.93-12a4.8,4.8,0,0,1,1.12-1.76q14.1-14.16,28.24-28.28a6.35,6.35,0,0,1,7.28-1.51,8.27,8.27,0,0,1,4.89,7l.4.21m-31.68,31,25.24-25.11-7.56-7.66-25.26,25.23,7.57,7.54m26.74-26.21c2-1.54,3.58-3.38,3-6.25a7.36,7.36,0,0,0-4.94-4.75,5.63,5.63,0,0,0-5.92,3.06l7.89,7.93m-28.14,27.72-7.52-7.65-1.12,3.35c-1.14,3.42-1.15,3.44,1.55,5.81a1.62,1.62,0,0,0,1.28.37c2-.59,4-1.29,5.81-1.88m-11.22,3.71,2.85-1-1.84-2.19-1,3.17" transform="translate(1977.1 871.34)"/><path class="cls-2" d="M-1300.45,534.15c-.19-.68-.45-1.09-.35-1.38a3.29,3.29,0,0,1,.86-1l16.67-16.69a3,3,0,0,1,.78-.72,5.92,5.92,0,0,1,1.3-.26,3.72,3.72,0,0,1-.27,1.18,6.75,6.75,0,0,1-1.05,1.09l-16.24,16.25c-.45.45-.94.87-1.69,1.56" transform="translate(1977.1 871.34)"/><path class="cls-2" d="M-1297,537.09c-.29-.23-.65-.39-.63-.51a1.92,1.92,0,0,1,.39-1c1.36-1.43,2.77-2.83,4.16-4.22l13.24-13.23a4,4,0,0,1,.9-.81,1,1,0,0,1,.9,0,1.1,1.1,0,0,1,0,.92c-.1.26-.39.45-.61.67L-1296,536.22c-.31.31-.68.56-1.05.88" transform="translate(1977.1 871.34)"/><path class="cls-11" d="M-1449.59,491.27a18,18,0,0,1-18,18,18,18,0,0,1-18-18,18,18,0,0,1,18-18,18,18,0,0,1,18,18" transform="translate(1977.1 871.34)"/></g><text class="cls-12" transform="translate(500.82 1378.19) scale(1 1.27)">-</text><g class="cls-3"><path class="cls-5" d="M-1035.85,573.9h-145.93a44.8,44.8,0,0,1-44.8-44.8,44.8,44.8,0,0,1,44.8-44.8h145.93A44.8,44.8,0,0,1-991,529.1a44.8,44.8,0,0,1-44.8,44.8" transform="translate(1977.1 871.34)"/><path class="cls-6" d="M-1035.85,573.9h-145.93a44.8,44.8,0,0,1-44.8-44.8,44.8,44.8,0,0,1,44.8-44.8h145.93A44.8,44.8,0,0,1-991,529.1,44.8,44.8,0,0,1-1035.85,573.9Z" transform="translate(1977.1 871.34)"/></g><text class="cls-7" transform="translate(801.57 1414.09) scale(1 1.27)"><tspan xml:space="preserve"> Name </tspan></text><g class="cls-3"><g class="cls-8"><g class="cls-39"><path class="cls-10" d="M-1035.68,573.32h-145.93a44.8,44.8,0,0,1-44.8-44.8,44.8,44.8,0,0,1,44.8-44.8h145.93a44.8,44.8,0,0,1,44.8,44.8,44.8,44.8,0,0,1-44.8,44.8" transform="translate(1977.1 871.34)"/></g></g><path class="cls-2" d="M-1009.59,514.78c-.74,1.4-1.2,3.06-2.27,4.14-9.49,9.64-19.08,19.17-28.65,28.72a3.75,3.75,0,0,1-1.4.86q-6.07,2-12.16,4a5.45,5.45,0,0,1-1.42.07,5.27,5.27,0,0,1,0-1.43c1.28-4,2.58-8,3.93-12a4.8,4.8,0,0,1,1.12-1.76q14.1-14.16,28.24-28.28a6.35,6.35,0,0,1,7.28-1.51,8.27,8.27,0,0,1,4.89,7l.4.21m-31.68,31,25.24-25.11-7.56-7.66-25.26,25.23,7.57,7.54m26.74-26.21c2-1.54,3.58-3.38,3-6.25a7.36,7.36,0,0,0-4.94-4.75,5.63,5.63,0,0,0-5.91,3.06l7.89,7.93m-28.14,27.72-7.52-7.65-1.12,3.35c-1.14,3.42-1.15,3.44,1.55,5.81a1.62,1.62,0,0,0,1.28.37c2-.59,4-1.29,5.81-1.88m-11.22,3.71,2.85-1-1.84-2.19-1,3.17" transform="translate(1977.1 871.34)"/><path class="cls-2" d="M-1043.45,538.15c-.19-.68-.45-1.09-.35-1.38a3.29,3.29,0,0,1,.86-1l16.67-16.69a3,3,0,0,1,.78-.72,5.92,5.92,0,0,1,1.3-.26,3.72,3.72,0,0,1-.27,1.18,6.75,6.75,0,0,1-1.05,1.09l-16.24,16.25c-.45.45-.94.87-1.69,1.56" transform="translate(1977.1 871.34)"/><path class="cls-2" d="M-1040,541.09c-.29-.23-.65-.39-.63-.51a1.92,1.92,0,0,1,.39-1c1.36-1.43,2.77-2.83,4.16-4.22l13.24-13.23a4,4,0,0,1,.9-.81,1,1,0,0,1,.9,0,1.1,1.1,0,0,1,0,.92c-.1.26-.39.45-.61.67L-1039,540.22c-.31.31-.68.56-1.05.88" transform="translate(1977.1 871.34)"/><path class="cls-11" d="M-1192.59,495.27a18,18,0,0,1-18,18,18,18,0,0,1-18-18,18,18,0,0,1,18-18,18,18,0,0,1,18,18" transform="translate(1977.1 871.34)"/></g><text class="cls-12" transform="translate(757.82 1382.19) scale(1 1.27)">-</text><g class="cls-3"><path class="cls-5" d="M-781.85,576.9H-927.78a44.8,44.8,0,0,1-44.8-44.8,44.8,44.8,0,0,1,44.8-44.8h145.93A44.8,44.8,0,0,1-737,532.1a44.8,44.8,0,0,1-44.8,44.8" transform="translate(1977.1 871.34)"/><path class="cls-6" d="M-781.85,576.9H-927.78a44.8,44.8,0,0,1-44.8-44.8,44.8,44.8,0,0,1,44.8-44.8h145.93A44.8,44.8,0,0,1-737,532.1,44.8,44.8,0,0,1-781.85,576.9Z" transform="translate(1977.1 871.34)"/></g><text class="cls-7" transform="translate(1055.57 1417.09) scale(1 1.27)"><tspan xml:space="preserve"> Name </tspan></text><g class="cls-3"><g class="cls-8"><g class="cls-40"><path class="cls-10" d="M-781.68,576.32H-927.61a44.8,44.8,0,0,1-44.8-44.8,44.8,44.8,0,0,1,44.8-44.8h145.93a44.8,44.8,0,0,1,44.8,44.8,44.8,44.8,0,0,1-44.8,44.8" transform="translate(1977.1 871.34)"/></g></g><path class="cls-2" d="M-755.59,517.78c-.74,1.4-1.2,3.06-2.27,4.14-9.49,9.64-19.08,19.17-28.66,28.72a3.75,3.75,0,0,1-1.4.86q-6.07,2-12.16,4a5.45,5.45,0,0,1-1.42.07,5.27,5.27,0,0,1,0-1.43c1.28-4,2.58-8,3.93-12a4.8,4.8,0,0,1,1.12-1.76q14.1-14.16,28.24-28.28a6.35,6.35,0,0,1,7.28-1.51,8.27,8.27,0,0,1,4.89,7l.4.21m-31.68,31L-762,523.64l-7.56-7.66-25.26,25.23,7.57,7.54m26.74-26.21c2-1.54,3.58-3.38,3-6.25a7.36,7.36,0,0,0-4.94-4.75,5.63,5.63,0,0,0-5.92,3.06l7.89,7.93m-28.14,27.72-7.52-7.65-1.12,3.35c-1.14,3.42-1.15,3.44,1.55,5.81a1.62,1.62,0,0,0,1.28.37c2-.59,4-1.29,5.81-1.88M-799.89,554l2.85-1-1.84-2.19-1,3.17" transform="translate(1977.1 871.34)"/><path class="cls-2" d="M-789.45,541.15c-.19-.68-.45-1.09-.35-1.38a3.29,3.29,0,0,1,.86-1L-772.27,522a3,3,0,0,1,.78-.72,5.92,5.92,0,0,1,1.3-.26,3.72,3.72,0,0,1-.27,1.18,6.75,6.75,0,0,1-1.05,1.09l-16.24,16.25c-.45.45-.94.87-1.69,1.56" transform="translate(1977.1 871.34)"/><path class="cls-2" d="M-786,544.09c-.29-.23-.65-.39-.63-.51a1.92,1.92,0,0,1,.39-1c1.36-1.43,2.77-2.83,4.17-4.22l13.24-13.23a4,4,0,0,1,.9-.81,1,1,0,0,1,.9,0,1.1,1.1,0,0,1,0,.92c-.1.26-.39.45-.61.67L-785,543.22c-.31.31-.68.56-1.05.88" transform="translate(1977.1 871.34)"/><path class="cls-11" d="M-938.59,498.27a18,18,0,0,1-18,18,18,18,0,0,1-18-18,18,18,0,0,1,18-18,18,18,0,0,1,18,18" transform="translate(1977.1 871.34)"/></g><text class="cls-12" transform="translate(1011.82 1385.19) scale(1 1.27)">-</text><g class="cls-3"><path class="cls-5" d="M-1548.63,703.19h-145.93a44.8,44.8,0,0,1-44.8-44.8,44.8,44.8,0,0,1,44.8-44.8h145.93a44.8,44.8,0,0,1,44.8,44.8,44.8,44.8,0,0,1-44.8,44.8" transform="translate(1977.1 871.34)"/><path class="cls-6" d="M-1548.63,703.19h-145.93a44.8,44.8,0,0,1-44.8-44.8,44.8,44.8,0,0,1,44.8-44.8h145.93a44.8,44.8,0,0,1,44.8,44.8A44.8,44.8,0,0,1-1548.63,703.19Z" transform="translate(1977.1 871.34)"/></g><text class="cls-7" transform="translate(288.79 1543.38) scale(1 1.27)"><tspan xml:space="preserve"> Name </tspan></text><g class="cls-3"><g class="cls-8"><g class="cls-41"><path class="cls-10" d="M-1548.46,702.61h-145.93a44.8,44.8,0,0,1-44.8-44.8,44.8,44.8,0,0,1,44.8-44.8h145.93a44.8,44.8,0,0,1,44.8,44.8,44.8,44.8,0,0,1-44.8,44.8" transform="translate(1977.1 871.34)"/></g></g><path class="cls-2" d="M-1522.37,644.07c-.74,1.4-1.2,3.06-2.27,4.14-9.49,9.64-19.08,19.17-28.65,28.72a3.74,3.74,0,0,1-1.4.86q-6.07,2-12.16,4a5.45,5.45,0,0,1-1.42.07,5.22,5.22,0,0,1,0-1.42c1.28-4,2.58-8,3.93-12a4.78,4.78,0,0,1,1.12-1.76q14.1-14.16,28.24-28.28a6.35,6.35,0,0,1,7.28-1.51,8.27,8.27,0,0,1,4.89,7l.4.21m-31.68,31,25.24-25.11-7.56-7.66-25.26,25.22,7.57,7.54m26.74-26.21c2-1.54,3.58-3.38,3-6.25a7.36,7.36,0,0,0-4.94-4.75,5.63,5.63,0,0,0-5.92,3.06l7.89,7.93m-28.14,27.72-7.52-7.65-1.12,3.35c-1.14,3.42-1.15,3.44,1.55,5.81a1.63,1.63,0,0,0,1.28.37c2-.59,4-1.29,5.81-1.88m-11.22,3.71,2.85-1-1.84-2.19-1,3.17" transform="translate(1977.1 871.34)"/><path class="cls-2" d="M-1556.23,667.44c-.19-.68-.45-1.1-.35-1.38a3.28,3.28,0,0,1,.86-1l16.67-16.69a3,3,0,0,1,.78-.72,5.87,5.87,0,0,1,1.3-.26,3.73,3.73,0,0,1-.27,1.18,6.79,6.79,0,0,1-1,1.09l-16.24,16.25c-.45.45-.94.87-1.69,1.56" transform="translate(1977.1 871.34)"/><path class="cls-2" d="M-1552.8,670.38c-.29-.22-.65-.39-.63-.51a1.92,1.92,0,0,1,.39-1c1.36-1.43,2.77-2.83,4.17-4.23l13.24-13.23a3.94,3.94,0,0,1,.9-.81,1,1,0,0,1,.9,0,1.1,1.1,0,0,1,0,.92c-.1.26-.39.45-.61.67l-17.33,17.33c-.31.31-.67.56-1.05.87" transform="translate(1977.1 871.34)"/><path class="cls-11" d="M-1705.37,624.56a18,18,0,0,1-18,18,18,18,0,0,1-18-18,18,18,0,0,1,18-18,18,18,0,0,1,18,18" transform="translate(1977.1 871.34)"/></g><text class="cls-12" transform="translate(245.04 1511.48) scale(1 1.27)">-</text><g class="cls-3"><path class="cls-5" d="M-1292,707.61H-1438a44.8,44.8,0,0,1-44.8-44.8A44.8,44.8,0,0,1-1438,618H-1292a44.8,44.8,0,0,1,44.8,44.8,44.8,44.8,0,0,1-44.8,44.8" transform="translate(1977.1 871.34)"/><path class="cls-6" d="M-1292,707.61H-1438a44.8,44.8,0,0,1-44.8-44.8A44.8,44.8,0,0,1-1438,618H-1292a44.8,44.8,0,0,1,44.8,44.8A44.8,44.8,0,0,1-1292,707.61Z" transform="translate(1977.1 871.34)"/></g><text class="cls-7" transform="translate(545.37 1547.8) scale(1 1.27)"><tspan xml:space="preserve"> Name </tspan></text><g class="cls-3"><g class="cls-8"><g class="cls-42"><path class="cls-10" d="M-1291.88,707h-145.93a44.8,44.8,0,0,1-44.8-44.8,44.8,44.8,0,0,1,44.8-44.8h145.93a44.8,44.8,0,0,1,44.8,44.8,44.8,44.8,0,0,1-44.8,44.8" transform="translate(1977.1 871.34)"/></g></g><path class="cls-2" d="M-1265.79,648.49c-.74,1.4-1.2,3.06-2.27,4.14-9.49,9.64-19.08,19.17-28.66,28.72a3.74,3.74,0,0,1-1.4.86q-6.07,2-12.16,4a5.5,5.5,0,0,1-1.42.07,5.23,5.23,0,0,1,0-1.43c1.28-4,2.58-8,3.93-12a4.77,4.77,0,0,1,1.12-1.76q14.1-14.16,28.24-28.28a6.35,6.35,0,0,1,7.28-1.51,8.26,8.26,0,0,1,4.89,7l.4.21m-31.68,31,25.24-25.11-7.56-7.66L-1305,671.92l7.57,7.54m26.74-26.21c2-1.54,3.58-3.37,3-6.25a7.36,7.36,0,0,0-4.94-4.75,5.63,5.63,0,0,0-5.92,3.06l7.89,7.93M-1298.86,681l-7.52-7.65-1.12,3.35c-1.14,3.42-1.15,3.44,1.55,5.81a1.63,1.63,0,0,0,1.28.37c2-.59,4-1.29,5.81-1.88m-11.22,3.7,2.85-1-1.84-2.19-1,3.17" transform="translate(1977.1 871.34)"/><path class="cls-2" d="M-1299.65,671.86c-.19-.68-.45-1.1-.35-1.38a3.28,3.28,0,0,1,.86-1l16.67-16.69a3,3,0,0,1,.78-.72,5.86,5.86,0,0,1,1.3-.26,3.72,3.72,0,0,1-.27,1.18,6.8,6.8,0,0,1-1.05,1.09L-1298,670.31c-.45.45-.94.87-1.69,1.56" transform="translate(1977.1 871.34)"/><path class="cls-2" d="M-1296.21,674.81c-.29-.23-.65-.39-.63-.51a1.93,1.93,0,0,1,.39-1c1.36-1.43,2.77-2.83,4.17-4.22L-1279,655.8a4,4,0,0,1,.9-.81,1,1,0,0,1,.9,0,1.1,1.1,0,0,1,0,.92c-.1.26-.39.45-.61.67l-17.33,17.33c-.31.31-.68.56-1.05.87" transform="translate(1977.1 871.34)"/><path class="cls-11" d="M-1448.79,629a18,18,0,0,1-18,18,18,18,0,0,1-18-18,18,18,0,0,1,18-18,18,18,0,0,1,18,18" transform="translate(1977.1 871.34)"/></g><text class="cls-12" transform="translate(501.62 1515.9) scale(1 1.27)">-</text><g class="cls-3"><path class="cls-5" d="M-1035,711.61H-1181a44.8,44.8,0,0,1-44.8-44.8A44.8,44.8,0,0,1-1181,622H-1035a44.8,44.8,0,0,1,44.8,44.8,44.8,44.8,0,0,1-44.8,44.8" transform="translate(1977.1 871.34)"/><path class="cls-6" d="M-1035,711.61H-1181a44.8,44.8,0,0,1-44.8-44.8A44.8,44.8,0,0,1-1181,622H-1035a44.8,44.8,0,0,1,44.8,44.8A44.8,44.8,0,0,1-1035,711.61Z" transform="translate(1977.1 871.34)"/></g><text class="cls-7" transform="translate(802.37 1551.8) scale(1 1.27)"><tspan xml:space="preserve"> Name </tspan></text><g class="cls-3"><g class="cls-8"><g class="cls-43"><path class="cls-10" d="M-1034.88,711h-145.93a44.8,44.8,0,0,1-44.8-44.8,44.8,44.8,0,0,1,44.8-44.8h145.93a44.8,44.8,0,0,1,44.8,44.8,44.8,44.8,0,0,1-44.8,44.8" transform="translate(1977.1 871.34)"/></g></g><path class="cls-2" d="M-1008.79,652.49c-.74,1.4-1.2,3.06-2.27,4.14-9.49,9.64-19.08,19.17-28.65,28.72a3.74,3.74,0,0,1-1.4.86q-6.07,2-12.16,4a5.5,5.5,0,0,1-1.42.07,5.23,5.23,0,0,1,0-1.43c1.28-4,2.58-8,3.93-12a4.77,4.77,0,0,1,1.12-1.76q14.1-14.16,28.24-28.28a6.35,6.35,0,0,1,7.28-1.51,8.26,8.26,0,0,1,4.89,7l.4.21m-31.68,31,25.24-25.11-7.56-7.66L-1048,675.92l7.57,7.54m26.74-26.21c2-1.54,3.58-3.37,3-6.25a7.36,7.36,0,0,0-4.94-4.75,5.63,5.63,0,0,0-5.91,3.06l7.89,7.93M-1041.86,685l-7.52-7.65-1.12,3.35c-1.14,3.42-1.15,3.44,1.55,5.81a1.63,1.63,0,0,0,1.28.37c2-.59,4-1.29,5.81-1.88m-11.22,3.7,2.85-1-1.84-2.19-1,3.17" transform="translate(1977.1 871.34)"/><path class="cls-2" d="M-1042.65,675.86c-.19-.68-.45-1.1-.35-1.38a3.28,3.28,0,0,1,.86-1l16.67-16.69a3,3,0,0,1,.78-.72,5.86,5.86,0,0,1,1.3-.26,3.72,3.72,0,0,1-.27,1.18,6.8,6.8,0,0,1-1.05,1.09L-1041,674.31c-.45.45-.94.87-1.69,1.56" transform="translate(1977.1 871.34)"/><path class="cls-2" d="M-1039.21,678.81c-.29-.23-.65-.39-.63-.51a1.93,1.93,0,0,1,.39-1c1.36-1.43,2.77-2.83,4.17-4.22L-1022,659.8a4,4,0,0,1,.9-.81,1,1,0,0,1,.9,0,1.1,1.1,0,0,1,0,.92c-.1.26-.39.45-.61.67l-17.33,17.33c-.31.31-.68.56-1.05.87" transform="translate(1977.1 871.34)"/><path class="cls-11" d="M-1191.79,633a18,18,0,0,1-18,18,18,18,0,0,1-18-18,18,18,0,0,1,18-18,18,18,0,0,1,18,18" transform="translate(1977.1 871.34)"/></g><text class="cls-12" transform="translate(758.62 1519.9) scale(1 1.27)">-</text><g class="cls-3"><path class="cls-5" d="M-781,714.61H-927a44.8,44.8,0,0,1-44.8-44.8A44.8,44.8,0,0,1-927,625H-781a44.8,44.8,0,0,1,44.8,44.8,44.8,44.8,0,0,1-44.8,44.8" transform="translate(1977.1 871.34)"/><path class="cls-6" d="M-781,714.61H-927a44.8,44.8,0,0,1-44.8-44.8A44.8,44.8,0,0,1-927,625H-781a44.8,44.8,0,0,1,44.8,44.8A44.8,44.8,0,0,1-781,714.61Z" transform="translate(1977.1 871.34)"/></g><text class="cls-7" transform="translate(1056.37 1554.8) scale(1 1.27)"><tspan xml:space="preserve"> Name </tspan></text><g class="cls-3"><g class="cls-8"><g class="cls-44"><path class="cls-10" d="M-780.88,714H-926.81a44.8,44.8,0,0,1-44.8-44.8,44.8,44.8,0,0,1,44.8-44.8h145.93a44.8,44.8,0,0,1,44.8,44.8,44.8,44.8,0,0,1-44.8,44.8" transform="translate(1977.1 871.34)"/></g></g><path class="cls-2" d="M-754.79,655.49c-.74,1.4-1.2,3.06-2.27,4.14-9.49,9.64-19.08,19.17-28.66,28.72a3.74,3.74,0,0,1-1.4.86q-6.07,2-12.16,4a5.5,5.5,0,0,1-1.42.07,5.23,5.23,0,0,1,0-1.43c1.28-4,2.58-8,3.93-12a4.77,4.77,0,0,1,1.12-1.76q14.1-14.16,28.24-28.28a6.35,6.35,0,0,1,7.28-1.51,8.26,8.26,0,0,1,4.89,7l.4.21m-31.68,31,25.24-25.11-7.56-7.66L-794,678.92l7.57,7.54m26.74-26.21c2-1.54,3.58-3.37,3-6.25a7.36,7.36,0,0,0-4.94-4.75,5.63,5.63,0,0,0-5.92,3.06l7.89,7.93M-787.86,688l-7.52-7.65-1.12,3.35c-1.14,3.42-1.15,3.44,1.55,5.81a1.63,1.63,0,0,0,1.28.37c2-.59,4-1.29,5.81-1.88m-11.22,3.7,2.85-1-1.84-2.19-1,3.17" transform="translate(1977.1 871.34)"/><path class="cls-2" d="M-788.65,678.86c-.19-.68-.45-1.1-.35-1.38a3.28,3.28,0,0,1,.86-1l16.67-16.69a3,3,0,0,1,.78-.72,5.86,5.86,0,0,1,1.3-.26,3.71,3.71,0,0,1-.27,1.18,6.8,6.8,0,0,1-1.05,1.09L-787,677.31c-.45.45-.94.87-1.69,1.56" transform="translate(1977.1 871.34)"/><path class="cls-2" d="M-785.21,681.81c-.29-.23-.65-.39-.63-.51a1.93,1.93,0,0,1,.39-1c1.36-1.43,2.77-2.83,4.17-4.22L-768,662.8a4,4,0,0,1,.9-.81,1,1,0,0,1,.9,0,1.1,1.1,0,0,1,0,.92c-.1.26-.39.45-.61.67l-17.33,17.33c-.31.31-.68.56-1.05.87" transform="translate(1977.1 871.34)"/><path class="cls-11" d="M-937.79,636a18,18,0,0,1-18,18,18,18,0,0,1-18-18,18,18,0,0,1,18-18,18,18,0,0,1,18,18" transform="translate(1977.1 871.34)"/></g><text class="cls-12" transform="translate(1012.62 1522.9) scale(1 1.27)">-</text><text class="cls-45" transform="translate(705.41 1714.31) scale(1 1.21)">+</text><g class="cls-46"><rect class="cls-2" y="648.62" width="840" height="179"/></g><text class="cls-47" transform="translate(538.99 685.02) scale(1.22 1)">Dashb<tspan class="cls-48" x="172.93" y="0">o</tspan><tspan x="208.58" y="0">a</tspan><tspan class="cls-49" x="239.82" y="0">r</tspan><tspan x="259.78" y="0">d</tspan></text><g class="cls-3"><path class="cls-4" d="M-1472.09-82.4h463.17c-3-87.26-105.55-157.34-231.59-157.34s-228.57,70.09-231.59,157.34" transform="translate(1977.1 871.34)"/><path class="cls-2" d="M-1290.9-179.89a35.84,35.84,0,0,1-10.42-4.63,12.72,12.72,0,0,1-7.75-.36c-4.27-1.6-6.42-5.15-5.5-9.06a2,2,0,0,1,2.33-1.29,1.68,1.68,0,0,1,1.57,1.92c-.58,2.44.63,4.48,3.24,5.46a8.1,8.1,0,0,0,3.18.48,5.79,5.79,0,0,1-1.1-3.67,4.82,4.82,0,0,1,3.9-4.63,6.14,6.14,0,0,1,6,1.87c1.49,1.83,1.13,4.22-.94,6.41a9.62,9.62,0,0,1-1.22,1.08,34.73,34.73,0,0,0,7.94,3.3,1.6,1.6,0,0,1,1.28,2.06,2,2,0,0,1-1.78,1.13,2.27,2.27,0,0,1-.72-.08m-9.48-12.63c-.8.18-1,1.1-1,1.63a3.34,3.34,0,0,0,.9,2.3,6.21,6.21,0,0,0,.94-.81c1-1,1.27-2,.78-2.59a1.76,1.76,0,0,0-1.38-.57l-.25,0" transform="translate(1977.1 871.34)"/><path class="cls-2" d="M-1221.89-144.89c1.55,4.78,4.52,5.76,7,5.76,5.44,0,8.93-.58,9.85-5.76l.74-11.17c0-4.48-5.16-5.38-10.6-5.38s-9.85,3.63-9.85,8.11Z" transform="translate(1977.1 871.34)"/><path class="cls-2" d="M-1264.33-144.89c-1.55,4.78-4.51,5.76-7,5.76-5.44,0-8.93-.58-9.85-5.76l-.74-11.17c0-4.48,5.16-5.38,10.6-5.38s9.85,3.63,9.85,8.11Z" transform="translate(1977.1 871.34)"/><path class="cls-2" d="M-1200.86-171.83c0,4,4.23,7.22,9.45,7.22s9.45-3.23,9.45-7.22v-8.88c0-4-4.23-7.22-9.45-7.22s-9.45,3.23-9.45,7.22Z" transform="translate(1977.1 871.34)"/><path class="cls-2" d="M-1243.11-212.09a72.23,72.23,0,0,1,28.63,5.66l11.06-5.72c2.7-2,8.58-2.16,11,.06s.53,6-2.17,8l-6.54,6.08c6.22,5.62,9.89,12.53,9.89,20,0,18.82-23.23,34.07-51.9,34.07S-1295-159.2-1295-178s23.23-34.07,51.89-34.07" transform="translate(1977.1 871.34)"/><path class="cls-4" d="M-1212.52-187.92c0,1.7,1.67,3.08,3.74,3.08s3.74-1.38,3.74-3.08-1.68-3.08-3.74-3.08-3.74,1.38-3.74,3.08" transform="translate(1977.1 871.34)"/><rect class="cls-4" x="713.45" y="615.11" width="40.34" height="51.07"/><path class="cls-2" d="M-1230.18-210v-35.87a5.1,5.1,0,0,1-.55,0c-2.06,0-3.73-1.37-3.73-3.07a3,3,0,0,1,.05-.45h-18.16a2.46,2.46,0,0,1,.06.45c0,1.69-1.67,3.07-3.73,3.07a5.2,5.2,0,0,1-.55,0v39.33A67.17,67.17,0,0,1-1244-208a67.32,67.32,0,0,1,13.82,1.26Z" transform="translate(1977.1 871.34)"/><path class="cls-2" d="M-1263.62-256.28v51.51c1.06-.34,2.29-.71,3.67-1.07V-252h33v46c1.39.34,2.62.7,3.67,1v-51.3Z" transform="translate(1977.1 871.34)"/><path class="cls-4" d="M-1247.23-220.08a1.62,1.62,0,0,1,1.21.49,6,6,0,0,1,.87,1.18h-4.11a1.79,1.79,0,0,1,.65-1.26,2.17,2.17,0,0,1,1.38-.42" transform="translate(1977.1 871.34)"/><path class="cls-4" d="M-1238.15-216.82a2.13,2.13,0,0,1-1.23.34,1.64,1.64,0,0,1-1.17-.45,5.35,5.35,0,0,1-.87-1.13h3.81a1.5,1.5,0,0,1-.54,1.24" transform="translate(1977.1 871.34)"/><path class="cls-4" d="M-1255.43-218.29c0,5.43,5.35,9.84,12,9.84s12-4.4,12-9.84-5.35-9.84-12-9.84-12,4.4-12,9.84m1.44-1h2.17a4,4,0,0,1,1.55-2.45,5.51,5.51,0,0,1,3.35-.9,4.94,4.94,0,0,1,1.81.3,4.73,4.73,0,0,1,1.32.77,5.05,5.05,0,0,1,1,1.08c.27.4.52.8.74,1.2h4.39a5.74,5.74,0,0,0-.28-1.14,6,6,0,0,0-.37-.82l2.58-.69a8.06,8.06,0,0,1,.48,1.17,6.46,6.46,0,0,1,.28,1.48h2v2h-2.13a4,4,0,0,1-1.44,2.37,4.92,4.92,0,0,1-3.12.88,5.59,5.59,0,0,1-1.86-.28,4.54,4.54,0,0,1-1.34-.74,4.93,4.93,0,0,1-1-1c-.27-.39-.51-.79-.72-1.18h-4.74a6.12,6.12,0,0,0,.33,1.49,3.84,3.84,0,0,0,.49,1l-2.67.75a4.57,4.57,0,0,1-.55-1.29,8.45,8.45,0,0,1-.29-1.92h-2Z" transform="translate(1977.1 871.34)"/><path class="cls-4" d="M-1272.59-200.64a3.53,3.53,0,0,0,4.08,1.23,79.93,79.93,0,0,1,49.76,0,3.52,3.52,0,0,0,4.08-1.23c.72-1.22,0-2.74-1.75-3.31a87.2,87.2,0,0,0-54.41,0c-1.73.57-2.48,2.09-1.75,3.31" transform="translate(1977.1 871.34)"/></g><text class="cls-50" transform="translate(585.53 795.87)">New Ca<tspan class="cls-51" x="161.59" y="0">t</tspan><tspan x="178.21" y="0">ego</tspan><tspan class="cls-52" x="260.25" y="0">r</tspan><tspan x="277.69" y="0">y</tspan></text><g class="cls-3"><polyline class="cls-53" points="1027.37 1726.45 1046.48 1745.56 1111.94 1680.1"/></g><text class="cls-54" transform="matrix(0.71, 0.7, -0.7, 0.71, 380.57, 1722.89)">+</text><text class="cls-55" transform="translate(518.18 978.12)">Ca<tspan class="cls-56" x="68.71" y="0">t</tspan><tspan x="89.8" y="0">ego</tspan><tspan class="cls-57" x="193.89" y="0">r</tspan><tspan x="216.02" y="0">y Name</tspan></text><text class="cls-55" transform="translate(555.38 1151.5)"><tspan class="cls-58">S</tspan><tspan x="31.77" y="0">ub Ca</tspan><tspan class="cls-56" x="186.65" y="0">t</tspan><tspan x="207.74" y="0">ego</tspan><tspan class="cls-57" x="311.83" y="0">r</tspan><tspan x="333.96" y="0">y </tspan></text><text class="cls-55" transform="translate(574.4 1339.71)"><tspan class="cls-59">S</tspan><tspan x="32.02" y="0">elect I</tspan><tspan class="cls-60" x="191.69" y="0">c</tspan><tspan class="cls-61" x="219.77" y="0">on</tspan></text><g class="cls-62"><path class="cls-63" d="M-1020.06,134.47h-436.52a44.8,44.8,0,0,1-44.8-44.8,44.8,44.8,0,0,1,44.8-44.8h436.52a44.8,44.8,0,0,1,44.8,44.8A44.8,44.8,0,0,1-1020.06,134.47Z" transform="translate(1977.1 871.34)"/><path class="cls-63" d="M-1041.06,310h-400.4a44.8,44.8,0,0,1-44.8-44.8,44.8,44.8,0,0,1,44.8-44.8h400.4a44.8,44.8,0,0,1,44.8,44.8A44.8,44.8,0,0,1-1041.06,310Z" transform="translate(1977.1 871.34)"/><path class="cls-63" d="M-1039.08,495.77h-397.4a44.8,44.8,0,0,1-44.8-44.8,44.8,44.8,0,0,1,44.8-44.8h397.4a44.8,44.8,0,0,1,44.8,44.8A44.8,44.8,0,0,1-1039.08,495.77Z" transform="translate(1977.1 871.34)"/><polygon class="cls-2" points="915.27 1307.56 953.4 1307.56 932.15 1337.56 915.27 1307.56"/></g><text class="cls-64" transform="translate(538.82 280.68)">Ca<tspan class="cls-65" x="88.85" y="0">t</tspan><tspan class="cls-66" x="116.12" y="0">ego</tspan><tspan class="cls-67" x="250.73" y="0">r</tspan><tspan class="cls-68" x="279.34" y="0">y</tspan></text><g class="cls-3"><path class="cls-2" d="M-1321.15-709.75h47.37v47.46h-1.72c-7.23,0-14.47,0-21.7,0-13.88,0-23.93-10.1-24-24q0-10.85,0-21.7Z" transform="translate(1977.1 871.34)"/><path class="cls-2" d="M-1252.41-731.08v-47.32c.56,0,1.12-.08,1.68-.08,7.29,0,14.57,0,21.86,0,13.82,0,23.86,10.07,23.92,23.87,0,7.34,0,14.68,0,22v1.52Z" transform="translate(1977.1 871.34)"/><path class="cls-2" d="M-1273.72-731h-47.43v-1.75c0-7.23,0-14.46,0-21.69,0-13.9,10.06-24,23.94-24,7.28,0,14.57,0,21.85,0,.52,0,1,0,1.63.08Z" transform="translate(1977.1 871.34)"/><path class="cls-2" d="M-1205-686.83a24.54,24.54,0,0,1-24.59,24.53,24.57,24.57,0,0,1-24.54-24.59,24.59,24.59,0,0,1,24.6-24.54,24.57,24.57,0,0,1,24.53,24.6" transform="translate(1977.1 871.34)"/></g><rect class="cls-1" x="161.93" width="1125.84" height="2420"/></svg>