<svg id="Layer_1" data-name="Layer 1" xmlns="http://www.w3.org/2000/svg" viewBox="0 0 120.18 183.71"><defs><style>.cls-1{fill:#fff;}.cls-2{fill:#4d10ea;}</style></defs><title>setting</title><path class="cls-1" d="M171.65,127.43a4.09,4.09,0,1,0,4.09-4.1,4.09,4.09,0,0,0-4.09,4.1" transform="translate(-85.41 -61.65)"/><path class="cls-1" d="M106,110.54a3.5,3.5,0,0,0,4.46,1.64,72.77,72.77,0,0,1,54.42,0,3.49,3.49,0,0,0,4.46-1.64,3.27,3.27,0,0,0-1.92-4.4,79.4,79.4,0,0,0-59.5,0,3.27,3.27,0,0,0-1.92,4.4" transform="translate(-85.41 -61.65)"/><rect class="cls-2" x="38.8" y="41.77" width="42.13" height="65.07"/><polygon class="cls-2" points="100.54 44.97 19.19 44.97 59.87 0 100.54 44.97"/><path class="cls-2" d="M156.13,138.63c-.06,1.71-1.13,3-2.4,2.94l-12-.57c-1.26-.1-2.2-1.51-2.11-3.23l.47-9.63c.1-1.69,1.18-3,2.45-3l12,.61c1.26.06,2.19,1.47,2.1,3.17Z" transform="translate(-85.41 -61.65)"/><path class="cls-2" d="M151.37,232.73c.08-1.69-.87-3.13-2.12-3.17l-12-.61c-1.25-.06-2.34,1.27-2.42,3l-.48,9.66c-.09,1.69.84,3.13,2.1,3.18l12,.61c1.26.06,2.34-1.27,2.41-2.93Z" transform="translate(-85.41 -61.65)"/><path class="cls-2" d="M131.4,139.56c.76,1.51.5,3.21-.63,3.77l-10.66,5.48c-1.12.55-2.66-.18-3.43-1.69l-4.41-8.62c-.76-1.52-.49-3.2.62-3.79l10.69-5.45c1.12-.59,2.65.18,3.42,1.7Z" transform="translate(-85.41 -61.65)"/><path class="cls-2" d="M174.33,223.45c-.79-1.53-2.31-2.27-3.44-1.73l-10.68,5.49c-1.13.57-1.4,2.26-.65,3.77l4.41,8.63c.79,1.51,2.33,2.28,3.45,1.7l10.67-5.5c1.13-.56,1.41-2.24.63-3.76Z" transform="translate(-85.41 -61.65)"/><path class="cls-2" d="M110.44,152.74c1.43.9,2,2.52,1.34,3.56l-6.53,10.09c-.68,1.05-2.4,1.17-3.82.23l-8.12-5.25c-1.4-.92-2-2.52-1.34-3.58l6.52-10.1c.67-1,2.38-1.14,3.81-.22Z" transform="translate(-85.41 -61.65)"/><path class="cls-2" d="M189.54,203.91c-1.43-.91-3.14-.82-3.82.23l-6.52,10.1c-.67,1-.08,2.66,1.36,3.57l8.1,5.24c1.43.94,3.15.85,3.84-.24L199,212.75c.67-1,.09-2.66-1.35-3.58Z" transform="translate(-85.41 -61.65)"/><path class="cls-2" d="M98.86,174.61c1.69.1,3,1.19,3,2.44l-.62,12c-.06,1.26-1.49,2.18-3.18,2.12l-9.67-.5c-1.7-.1-3-1.18-2.94-2.43l.61-12c.05-1.26,1.49-2.2,3.19-2.12Z" transform="translate(-85.41 -61.65)"/><path class="cls-2" d="M193,179.41c-1.71-.1-3.15.83-3.21,2.1l-.6,12c-.06,1.26,1.26,2.34,3,2.43l9.65.49c1.7.07,3.12-.85,3.2-2.11l.6-12c.08-1.26-1.27-2.34-2.94-2.42Z" transform="translate(-85.41 -61.65)"/><path class="cls-2" d="M99.78,199.35c1.5-.77,3.2-.47,3.79.63L109,210.69c.57,1.1-.18,2.65-1.7,3.41l-8.61,4.39c-1.49.8-3.18.51-3.77-.62l-5.48-10.67c-.56-1.11.19-2.66,1.72-3.43Z" transform="translate(-85.41 -61.65)"/><path class="cls-2" d="M183.67,156.46c-1.52.76-2.27,2.29-1.7,3.41l5.46,10.68c.56,1.11,2.26,1.41,3.77.64l8.62-4.43c1.51-.76,2.28-2.28,1.72-3.42l-5.47-10.7c-.57-1.11-2.26-1.39-3.79-.61Z" transform="translate(-85.41 -61.65)"/><path class="cls-2" d="M113,220.35c.92-1.45,2.52-2.06,3.58-1.38l10.07,6.53c1.05.68,1.17,2.41.24,3.83l-5.28,8.12c-.91,1.42-2.52,2-3.58,1.34l-10.07-6.53c-1.06-.67-1.15-2.39-.25-3.81Z" transform="translate(-85.41 -61.65)"/><path class="cls-2" d="M164.14,141.23c-.91,1.41-.82,3.1.25,3.8l10.09,6.52c1,.66,2.64.09,3.56-1.34l5.27-8.13c.92-1.41.82-3.13-.24-3.8L173,131.74c-1-.67-2.66-.06-3.57,1.35Z" transform="translate(-85.41 -61.65)"/><path class="cls-2" d="M148.06,134.72a50.61,50.61,0,1,0,48,53.13,50.61,50.61,0,0,0-48-53.13" transform="translate(-85.41 -61.65)"/><path class="cls-1" d="M185.4,185.28a39.9,39.9,0,1,1-39.88-39.92,39.89,39.89,0,0,1,39.88,39.92" transform="translate(-85.41 -61.65)"/><path class="cls-2" d="M177.35,185.27a31.86,31.86,0,1,1-31.85-31.85,31.85,31.85,0,0,1,31.85,31.85" transform="translate(-85.41 -61.65)"/><path class="cls-1" d="M143,201.63a22.71,22.71,0,0,1-4.51-.54,12.93,12.93,0,0,1-3-1l1.75-5.18a9.77,9.77,0,0,0,2.28,1,16.15,16.15,0,0,0,3.49.62V187.3a29.39,29.39,0,0,1-2.78-1.41,11,11,0,0,1-2.46-1.83,8.19,8.19,0,0,1-2.38-6.18,8.32,8.32,0,0,1,2-6,9.73,9.73,0,0,1,5.57-2.76V165h4.7v3.92a20.66,20.66,0,0,1,3.46.53,25.32,25.32,0,0,1,2.75.95l-1.62,5a13.44,13.44,0,0,0-1.95-.72,13.61,13.61,0,0,0-2.64-.54v8.48c.92.42,1.87.9,2.81,1.41a12.71,12.71,0,0,1,2.52,1.87,9.12,9.12,0,0,1,1.82,2.56,8.22,8.22,0,0,1,.68,3.5,9.2,9.2,0,0,1-2.09,6.46,9.93,9.93,0,0,1-5.74,3v4.2H143Zm-1.75-24.26a2.88,2.88,0,0,0,1,2.27,13.86,13.86,0,0,0,2.65,1.68V174a3.72,3.72,0,0,0-2.9,1,3.45,3.45,0,0,0-.79,2.36m8.41,15.16a2.83,2.83,0,0,0-1.15-2.33,14.26,14.26,0,0,0-2.78-1.69v7.93a4.65,4.65,0,0,0,3-1.23,3.79,3.79,0,0,0,1-2.68" transform="translate(-85.41 -61.65)"/></svg>